<svg id="svg" version="1.1" width="400" height="400" viewBox="0 0 400 400" xmlns="http://www.w3.org/2000/svg" xmlns:xlink="http://www.w3.org/1999/xlink" ><g id="svgg"><path id="path0" d="M202.400 158.800 C 202.400 159.020,202.031 159.200,201.581 159.200 C 201.130 159.200,200.345 159.650,199.835 160.200 C 199.325 160.750,198.690 161.200,198.422 161.200 C 196.748 161.200,193.200 165.934,193.200 168.168 C 193.200 169.396,193.020 170.400,192.800 170.400 C 192.145 170.400,192.299 176.356,192.971 177.029 C 194.584 178.641,198.800 177.376,198.800 175.280 C 198.800 174.602,198.980 173.936,199.200 173.800 C 199.420 173.664,199.600 172.748,199.600 171.764 C 199.600 170.543,199.790 169.902,200.200 169.745 C 200.530 169.618,200.800 169.187,200.800 168.787 C 200.800 168.386,201.295 167.809,201.900 167.503 C 202.505 167.197,203.429 166.689,203.952 166.374 C 204.694 165.927,204.945 165.911,205.086 166.300 C 205.185 166.575,205.522 166.800,205.833 166.800 C 206.145 166.800,206.400 166.980,206.400 167.200 C 206.400 167.420,206.766 167.600,207.213 167.600 C 207.659 167.600,208.129 167.870,208.255 168.200 C 208.382 168.530,208.916 168.800,209.443 168.800 C 209.969 168.800,210.400 168.980,210.400 169.200 C 210.400 169.420,210.735 169.600,211.144 169.600 C 211.553 169.600,212.226 170.050,212.639 170.600 C 213.052 171.150,213.778 171.600,214.252 171.600 C 214.726 171.600,215.218 171.870,215.345 172.200 C 215.471 172.530,215.941 172.800,216.387 172.800 C 216.834 172.800,217.200 172.980,217.200 173.200 C 217.200 173.420,217.517 173.600,217.904 173.600 C 218.291 173.600,219.093 174.050,219.687 174.600 C 220.280 175.150,221.049 175.600,221.395 175.600 C 221.742 175.600,222.129 175.870,222.255 176.200 C 222.382 176.530,222.874 176.800,223.348 176.800 C 223.822 176.800,224.548 177.250,224.961 177.800 C 225.374 178.350,226.047 178.800,226.456 178.800 C 226.937 178.800,227.200 179.087,227.200 179.613 C 227.200 180.059,227.470 180.529,227.800 180.655 C 228.135 180.784,228.400 181.378,228.400 182.000 C 228.400 182.622,228.135 183.216,227.800 183.345 C 227.470 183.471,227.200 183.874,227.200 184.240 C 227.200 184.606,226.570 185.500,225.800 186.226 C 224.813 187.157,224.409 187.879,224.432 188.673 C 224.449 189.293,224.554 189.575,224.665 189.300 C 224.787 188.997,225.626 188.800,226.791 188.800 C 228.132 188.800,228.784 188.618,228.945 188.200 C 229.102 187.789,229.745 187.600,230.987 187.600 C 231.984 187.600,232.800 187.420,232.800 187.200 C 232.800 186.980,233.340 186.800,234.000 186.800 C 236.499 186.800,236.800 185.944,236.800 178.843 C 236.800 173.561,236.699 172.447,236.200 172.255 C 235.826 172.112,235.600 171.502,235.600 170.636 C 235.600 169.872,235.420 169.136,235.200 169.000 C 234.980 168.864,234.800 168.243,234.800 167.619 C 234.800 166.981,234.538 166.385,234.200 166.255 C 233.870 166.129,233.600 165.670,233.600 165.236 C 233.600 164.802,233.420 164.336,233.200 164.200 C 232.980 164.064,232.786 163.558,232.768 163.076 C 232.751 162.594,232.646 162.425,232.535 162.700 C 232.413 163.003,231.574 163.200,230.409 163.200 C 229.068 163.200,228.416 163.382,228.255 163.800 C 228.098 164.211,227.455 164.400,226.213 164.400 C 225.216 164.400,224.400 164.580,224.400 164.800 C 224.400 165.020,223.519 165.200,222.443 165.200 C 221.072 165.200,220.417 165.380,220.255 165.800 C 219.892 166.747,218.197 166.513,217.361 165.400 C 216.948 164.850,216.315 164.400,215.954 164.400 C 215.593 164.400,215.074 164.130,214.800 163.800 C 214.526 163.470,214.030 163.200,213.697 163.200 C 213.364 163.200,212.675 162.750,212.165 162.200 C 211.655 161.650,210.970 161.200,210.643 161.200 C 210.315 161.200,209.936 161.020,209.800 160.800 C 209.664 160.580,209.198 160.400,208.764 160.400 C 208.330 160.400,207.871 160.130,207.745 159.800 C 207.618 159.470,207.184 159.200,206.781 159.200 C 206.377 159.200,205.936 159.020,205.800 158.800 C 205.664 158.580,204.843 158.400,203.976 158.400 C 203.109 158.400,202.400 158.580,202.400 158.800 M194.255 159.800 C 194.129 160.130,193.659 160.400,193.213 160.400 C 192.766 160.400,192.400 160.580,192.400 160.800 C 192.400 161.020,192.031 161.200,191.581 161.200 C 191.130 161.200,190.345 161.650,189.835 162.200 C 189.325 162.750,188.639 163.200,188.310 163.200 C 187.981 163.200,187.374 163.650,186.961 164.200 C 186.548 164.750,185.822 165.200,185.348 165.200 C 184.874 165.200,184.382 165.470,184.255 165.800 C 184.129 166.130,183.659 166.400,183.213 166.400 C 182.766 166.400,182.400 166.580,182.400 166.800 C 182.400 167.020,182.040 167.200,181.600 167.200 C 181.160 167.200,180.800 167.020,180.800 166.800 C 180.800 166.580,180.012 166.400,179.049 166.400 C 177.980 166.400,177.104 166.166,176.800 165.800 C 176.526 165.470,175.705 165.200,174.975 165.200 C 174.245 165.200,173.536 165.020,173.400 164.800 C 173.264 164.580,172.438 164.400,171.564 164.400 C 170.520 164.400,169.896 164.194,169.745 163.800 C 169.604 163.434,168.998 163.200,168.191 163.200 C 167.462 163.200,166.776 162.975,166.665 162.700 C 166.554 162.425,166.449 162.611,166.432 163.113 C 166.414 163.614,166.130 164.129,165.800 164.255 C 165.470 164.382,165.200 164.916,165.200 165.443 C 165.200 165.969,165.020 166.400,164.800 166.400 C 164.580 166.400,164.400 167.011,164.400 167.757 C 164.400 168.595,164.170 169.203,163.800 169.345 C 163.358 169.514,163.200 170.212,163.200 171.987 C 163.200 173.329,163.022 174.400,162.800 174.400 C 162.552 174.400,162.400 176.533,162.400 180.000 C 162.400 185.362,162.435 185.600,163.213 185.600 C 163.659 185.600,164.129 185.870,164.255 186.200 C 164.397 186.570,165.005 186.800,165.843 186.800 C 166.589 186.800,167.200 186.980,167.200 187.200 C 167.200 187.420,168.081 187.600,169.157 187.600 C 170.528 187.600,171.183 187.780,171.345 188.200 C 171.488 188.574,172.098 188.800,172.964 188.800 C 173.728 188.800,174.464 188.980,174.600 189.200 C 174.986 189.825,175.440 189.680,176.458 188.607 C 177.600 187.403,181.836 187.106,182.255 188.200 C 182.384 188.535,182.978 188.800,183.600 188.800 C 184.222 188.800,184.816 188.535,184.945 188.200 C 185.071 187.870,185.526 187.600,185.954 187.600 C 186.383 187.600,186.815 187.375,186.914 187.100 C 187.059 186.700,187.265 186.700,187.942 187.100 C 188.408 187.375,189.250 187.600,189.814 187.600 C 190.413 187.600,191.254 188.049,191.841 188.682 C 192.697 189.606,192.958 189.694,193.617 189.282 C 194.549 188.700,197.200 188.639,197.200 189.200 C 197.200 189.420,197.560 189.600,198.000 189.600 C 198.953 189.600,200.400 190.943,200.400 191.829 C 200.400 192.784,201.419 193.600,202.611 193.600 C 203.806 193.600,206.400 195.900,206.400 196.960 C 206.400 197.312,206.580 197.600,206.800 197.600 C 207.020 197.600,207.200 197.960,207.200 198.400 C 207.200 198.840,207.020 199.200,206.800 199.200 C 206.580 199.200,206.400 199.740,206.400 200.400 C 206.400 201.467,206.533 201.600,207.600 201.600 C 208.521 201.600,208.800 201.420,208.800 200.824 C 208.800 200.397,208.980 199.936,209.200 199.800 C 209.954 199.334,209.685 196.400,208.889 196.400 C 207.976 196.400,206.678 194.895,206.959 194.162 C 207.243 193.423,207.965 193.444,208.255 194.200 C 208.382 194.530,208.916 194.800,209.443 194.800 C 209.969 194.800,210.400 194.980,210.400 195.200 C 210.400 195.420,210.715 195.603,211.100 195.607 C 211.485 195.611,212.224 196.061,212.742 196.607 C 213.260 197.153,213.895 197.600,214.153 197.600 C 214.762 197.600,216.800 195.277,216.800 194.582 C 216.800 194.288,216.981 193.935,217.203 193.798 C 217.712 193.483,216.685 192.400,215.878 192.400 C 215.559 192.400,215.074 192.130,214.800 191.800 C 214.526 191.470,214.030 191.200,213.697 191.200 C 213.364 191.200,212.691 190.768,212.202 190.240 C 211.713 189.712,210.972 189.215,210.556 189.135 C 209.157 188.865,209.694 187.809,211.297 187.676 C 212.484 187.578,212.990 187.764,213.743 188.576 C 214.265 189.139,214.992 189.600,215.358 189.600 C 215.725 189.600,216.129 189.870,216.255 190.200 C 216.382 190.530,216.916 190.800,217.443 190.800 C 217.969 190.800,218.400 190.980,218.400 191.200 C 218.400 191.807,220.379 191.678,221.029 191.029 C 221.343 190.714,221.600 190.169,221.600 189.816 C 221.600 189.463,221.870 189.071,222.200 188.945 C 223.434 188.471,222.177 186.400,220.656 186.400 C 220.281 186.400,219.871 186.130,219.745 185.800 C 219.618 185.470,219.184 185.200,218.781 185.200 C 218.377 185.200,217.936 185.020,217.800 184.800 C 217.664 184.580,217.243 184.400,216.865 184.400 C 215.971 184.400,214.681 182.886,214.959 182.162 C 215.338 181.175,217.787 181.466,218.639 182.600 C 219.052 183.150,219.778 183.600,220.252 183.600 C 220.726 183.600,221.218 183.870,221.345 184.200 C 221.676 185.065,224.366 184.992,225.043 184.100 C 225.937 182.922,225.763 180.400,224.787 180.400 C 224.341 180.400,223.871 180.130,223.745 179.800 C 223.618 179.470,223.205 179.200,222.827 179.200 C 222.449 179.200,221.717 178.750,221.200 178.200 C 220.683 177.650,219.932 177.200,219.530 177.200 C 219.129 177.200,218.800 177.020,218.800 176.800 C 218.800 176.580,218.471 176.400,218.070 176.400 C 217.668 176.400,216.917 175.950,216.400 175.400 C 215.883 174.850,215.126 174.400,214.718 174.400 C 214.309 174.400,213.871 174.130,213.745 173.800 C 213.618 173.470,213.184 173.200,212.781 173.200 C 212.377 173.200,211.936 173.020,211.800 172.800 C 211.664 172.580,211.229 172.400,210.832 172.400 C 210.436 172.400,209.774 171.950,209.361 171.400 C 208.948 170.850,208.315 170.400,207.954 170.400 C 207.593 170.400,207.074 170.130,206.800 169.800 C 206.526 169.470,205.964 169.200,205.551 169.200 C 205.138 169.200,204.800 169.006,204.800 168.769 C 204.800 168.532,204.260 168.878,203.600 169.538 C 202.656 170.482,202.400 171.089,202.400 172.382 C 202.400 173.474,202.199 174.102,201.800 174.255 C 201.392 174.412,201.200 175.051,201.200 176.256 C 201.200 179.474,196.630 182.005,194.800 179.800 C 194.526 179.470,193.819 179.200,193.229 179.200 C 190.365 179.200,187.972 172.249,190.200 170.400 C 190.545 170.114,190.800 169.242,190.800 168.351 C 190.800 167.498,190.980 166.800,191.200 166.800 C 191.420 166.800,191.600 166.240,191.600 165.556 C 191.600 164.087,194.628 160.800,195.981 160.800 L 196.800 160.800 196.000 160.000 C 195.045 159.045,194.566 158.990,194.255 159.800 M178.100 191.001 C 176.078 193.107,176.101 192.962,177.569 194.431 C 179.059 195.920,180.125 195.909,181.613 194.386 C 183.053 192.914,183.327 190.400,182.049 190.400 C 181.636 190.400,181.074 190.130,180.800 189.800 C 180.108 188.966,180.013 189.008,178.100 191.001 M187.089 190.005 C 186.710 190.447,186.400 191.052,186.400 191.349 C 186.400 191.645,185.950 192.226,185.400 192.639 C 184.850 193.052,184.400 193.778,184.400 194.252 C 184.400 194.726,184.130 195.218,183.800 195.345 C 182.355 195.899,183.866 198.800,185.600 198.800 C 186.040 198.800,186.400 198.980,186.400 199.200 C 186.400 199.420,187.120 198.880,188.000 198.000 C 188.880 197.120,189.600 196.124,189.600 195.787 C 189.600 195.451,189.870 195.071,190.200 194.945 C 190.530 194.818,190.800 194.284,190.800 193.757 C 190.800 193.231,190.980 192.800,191.200 192.800 C 191.794 192.800,191.684 191.627,191.029 190.971 C 190.714 190.657,190.196 190.400,189.878 190.400 C 189.559 190.400,189.074 190.130,188.800 189.800 C 188.147 189.014,187.913 189.042,187.089 190.005 M193.467 191.467 C 193.320 191.613,193.200 192.063,193.200 192.467 C 193.200 192.870,193.020 193.200,192.800 193.200 C 192.580 193.200,192.400 193.631,192.400 194.157 C 192.400 194.684,192.130 195.218,191.800 195.345 C 191.470 195.471,191.200 195.941,191.200 196.387 C 191.200 196.834,191.020 197.200,190.800 197.200 C 190.580 197.200,190.400 197.631,190.400 198.157 C 190.400 198.684,190.130 199.218,189.800 199.345 C 188.749 199.748,189.043 201.600,190.157 201.600 C 190.684 201.600,191.218 201.870,191.345 202.200 C 191.851 203.519,194.800 202.179,194.800 200.629 C 194.800 200.315,195.250 199.704,195.800 199.271 C 196.350 198.839,196.800 198.106,196.800 197.642 C 196.800 197.179,196.980 196.800,197.200 196.800 C 197.420 196.800,197.600 196.434,197.600 195.987 C 197.600 195.541,197.870 195.071,198.200 194.945 C 199.055 194.616,198.942 192.942,198.000 192.000 C 197.211 191.211,194.089 190.844,193.467 191.467 M200.400 196.019 C 200.400 196.470,199.950 197.255,199.400 197.765 C 198.850 198.275,198.400 198.992,198.400 199.358 C 198.400 199.725,198.130 200.129,197.800 200.255 C 197.470 200.382,197.200 200.916,197.200 201.443 C 197.200 201.969,197.020 202.400,196.800 202.400 C 196.580 202.400,196.400 202.749,196.400 203.176 C 196.400 203.603,196.225 204.061,196.012 204.193 C 195.799 204.324,196.133 204.965,196.755 205.616 C 198.206 207.134,200.800 207.346,200.800 205.946 C 200.800 205.476,201.250 204.675,201.800 204.165 C 202.350 203.655,202.800 202.970,202.800 202.643 C 202.800 202.315,202.980 201.936,203.200 201.800 C 203.420 201.664,203.600 201.018,203.600 200.364 C 203.600 199.676,203.853 199.078,204.200 198.945 C 205.235 198.547,204.860 197.649,203.140 196.403 C 201.196 194.995,200.400 194.883,200.400 196.019 " stroke="none" fill="#fbfcfb" fill-rule="evenodd"></path><path id="path1" d="M201.600 158.000 C 201.600 158.220,201.285 158.403,200.900 158.407 C 200.515 158.411,199.776 158.861,199.258 159.407 C 198.085 160.644,197.950 160.641,196.663 159.354 C 195.610 158.301,192.800 158.203,192.800 159.218 C 192.800 159.428,192.530 159.600,192.200 159.600 C 191.870 159.600,191.600 159.780,191.600 160.000 C 191.600 160.220,191.285 160.403,190.900 160.407 C 190.515 160.411,189.776 160.861,189.258 161.407 C 188.740 161.953,188.108 162.400,187.854 162.400 C 187.600 162.400,186.907 162.850,186.313 163.400 C 185.720 163.950,184.966 164.400,184.637 164.400 C 184.309 164.400,183.877 164.690,183.679 165.045 C 183.187 165.923,178.235 165.892,177.347 165.004 C 177.015 164.672,176.216 164.400,175.571 164.400 C 174.927 164.400,174.400 164.220,174.400 164.000 C 174.400 163.780,173.519 163.600,172.443 163.600 C 171.072 163.600,170.417 163.420,170.255 163.000 C 170.122 162.653,169.524 162.400,168.836 162.400 C 168.182 162.400,167.536 162.220,167.400 162.000 C 166.886 161.168,165.600 161.566,165.600 162.557 C 165.600 163.084,165.330 163.618,165.000 163.745 C 164.670 163.871,164.400 164.341,164.400 164.787 C 164.400 165.234,164.220 165.600,164.000 165.600 C 163.780 165.600,163.600 166.208,163.600 166.951 C 163.600 167.694,163.330 168.526,163.000 168.800 C 162.603 169.130,162.400 170.025,162.400 171.449 C 162.400 172.632,162.220 173.600,162.000 173.600 C 161.750 173.600,161.600 176.000,161.600 180.000 L 161.600 186.400 162.557 186.400 C 163.084 186.400,163.618 186.670,163.745 187.000 C 163.878 187.347,164.476 187.600,165.164 187.600 C 165.818 187.600,166.464 187.780,166.600 188.000 C 166.736 188.220,167.652 188.400,168.636 188.400 C 169.857 188.400,170.498 188.590,170.655 189.000 C 170.797 189.370,171.405 189.600,172.243 189.600 C 172.989 189.600,173.600 189.780,173.600 190.000 C 173.600 190.811,176.097 190.412,176.980 189.460 C 177.670 188.715,178.240 188.528,179.724 188.560 C 180.755 188.582,181.429 188.657,181.221 188.726 C 180.481 188.973,181.304 190.000,182.243 190.000 C 183.108 190.000,183.200 190.170,183.200 191.769 C 183.200 195.408,179.583 197.244,177.169 194.831 C 175.615 193.276,175.690 192.663,177.666 190.783 C 178.582 189.912,179.245 189.112,179.139 189.006 C 178.700 188.567,175.600 192.066,175.600 193.001 C 175.600 194.709,177.683 196.400,179.787 196.400 C 180.784 196.400,181.600 196.220,181.600 196.000 C 181.600 195.780,181.780 195.600,182.000 195.600 C 182.220 195.600,182.400 196.070,182.400 196.644 C 182.400 197.847,183.872 199.583,184.900 199.593 C 185.285 199.597,185.600 199.780,185.600 200.000 C 185.600 200.220,186.050 200.400,186.600 200.400 C 187.150 200.400,187.600 200.220,187.600 200.000 C 187.600 198.967,188.364 199.754,188.475 200.900 C 188.572 201.908,188.808 202.229,189.524 202.331 C 190.033 202.403,190.547 202.718,190.667 203.031 C 190.982 203.850,194.400 203.822,194.400 203.000 C 194.400 202.670,194.670 202.400,195.000 202.400 C 195.330 202.400,195.600 202.651,195.600 202.957 C 195.600 203.264,195.330 203.618,195.000 203.745 C 194.096 204.092,194.261 204.588,195.813 206.186 C 197.584 208.010,201.284 208.213,201.528 206.500 C 201.598 206.005,201.823 205.600,202.028 205.600 C 202.233 205.600,202.400 205.330,202.400 205.000 C 202.400 204.670,202.670 204.400,203.000 204.400 C 203.373 204.400,203.600 204.022,203.600 203.400 C 203.600 202.850,203.780 202.400,204.000 202.400 C 204.220 202.400,204.400 201.789,204.400 201.043 C 204.400 200.205,204.630 199.597,205.000 199.455 C 205.471 199.275,205.600 199.566,205.600 200.813 L 205.600 202.400 207.600 202.400 C 209.467 202.400,209.600 202.333,209.600 201.400 C 209.600 200.850,209.780 200.400,210.000 200.400 C 210.220 200.400,210.400 199.500,210.400 198.400 C 210.400 196.157,210.872 195.875,212.071 197.400 C 212.699 198.198,213.216 198.400,214.629 198.400 C 216.251 198.400,216.400 198.316,216.400 197.400 C 216.400 196.778,216.627 196.400,217.000 196.400 C 217.373 196.400,217.600 196.022,217.600 195.400 C 217.600 194.850,217.801 194.400,218.047 194.400 C 218.307 194.400,218.414 193.984,218.302 193.400 C 218.124 192.470,218.222 192.400,219.684 192.400 C 221.405 192.400,222.400 191.693,222.400 190.471 C 222.400 190.039,222.670 189.582,223.000 189.455 C 223.365 189.315,223.600 189.455,223.600 189.813 C 223.600 190.172,223.987 190.400,224.600 190.400 C 225.150 190.400,225.600 190.220,225.600 190.000 C 225.600 189.780,226.416 189.600,227.413 189.600 C 228.655 189.600,229.298 189.411,229.455 189.000 C 229.617 188.580,230.272 188.400,231.643 188.400 C 232.719 188.400,233.600 188.220,233.600 188.000 C 233.600 187.780,234.230 187.600,235.000 187.600 C 235.978 187.600,236.400 187.419,236.400 187.000 C 236.400 186.670,236.670 186.400,237.000 186.400 C 237.511 186.400,237.600 185.332,237.600 179.187 C 237.600 173.145,237.503 171.938,237.000 171.745 C 236.594 171.589,236.400 170.953,236.400 169.781 C 236.400 168.827,236.220 167.936,236.000 167.800 C 235.780 167.664,235.600 167.198,235.600 166.764 C 235.600 166.330,235.330 165.871,235.000 165.745 C 234.670 165.618,234.400 165.084,234.400 164.557 C 234.400 164.031,234.233 163.600,234.028 163.600 C 233.823 163.600,233.598 163.195,233.528 162.700 C 233.398 161.787,231.600 161.108,231.600 161.972 C 231.600 162.213,230.808 162.400,229.787 162.400 C 228.545 162.400,227.902 162.589,227.745 163.000 C 227.583 163.420,226.928 163.600,225.557 163.600 C 224.481 163.600,223.600 163.780,223.600 164.000 C 223.600 164.220,222.784 164.400,221.787 164.400 C 220.545 164.400,219.902 164.589,219.745 165.000 C 219.411 165.869,218.825 165.740,217.929 164.600 C 217.496 164.050,216.795 163.600,216.371 163.600 C 215.947 163.600,215.600 163.438,215.600 163.239 C 215.600 163.041,215.069 162.693,214.420 162.467 C 213.771 162.241,212.921 161.683,212.531 161.228 C 212.141 160.772,211.502 160.400,211.111 160.400 C 210.720 160.400,210.400 160.220,210.400 160.000 C 210.400 159.780,209.969 159.600,209.443 159.600 C 208.916 159.600,208.382 159.330,208.255 159.000 C 208.129 158.670,207.659 158.400,207.213 158.400 C 206.766 158.400,206.400 158.220,206.400 158.000 C 206.400 157.778,205.333 157.600,204.000 157.600 C 202.667 157.600,201.600 157.778,201.600 158.000 M206.000 158.400 C 206.000 158.620,206.338 158.800,206.751 158.800 C 207.164 158.800,207.726 159.070,208.000 159.400 C 208.274 159.730,208.836 160.000,209.249 160.000 C 209.662 160.000,210.000 160.180,210.000 160.400 C 210.000 160.620,210.329 160.800,210.730 160.800 C 211.132 160.800,211.883 161.250,212.400 161.800 C 212.917 162.350,213.674 162.800,214.082 162.800 C 214.491 162.800,214.929 163.070,215.055 163.400 C 215.182 163.730,215.595 164.000,215.973 164.000 C 216.351 164.000,217.083 164.450,217.600 165.000 C 218.678 166.148,219.294 166.251,220.000 165.400 C 220.304 165.034,221.180 164.800,222.249 164.800 C 223.212 164.800,224.000 164.620,224.000 164.400 C 224.000 164.180,224.788 164.000,225.751 164.000 C 226.820 164.000,227.696 163.766,228.000 163.400 C 228.301 163.037,229.177 162.800,230.216 162.800 C 231.177 162.800,232.002 162.593,232.090 162.329 C 232.325 161.625,233.200 162.330,233.200 163.224 C 233.200 163.651,233.380 164.000,233.600 164.000 C 233.820 164.000,234.000 164.338,234.000 164.751 C 234.000 165.164,234.270 165.726,234.600 166.000 C 234.930 166.274,235.200 166.915,235.200 167.425 C 235.200 167.935,235.380 168.464,235.600 168.600 C 235.820 168.736,236.000 169.445,236.000 170.175 C 236.000 170.905,236.270 171.726,236.600 172.000 C 237.089 172.406,237.200 173.718,237.200 179.085 C 237.200 186.382,236.923 187.155,234.300 187.187 C 233.695 187.194,233.200 187.380,233.200 187.600 C 233.200 187.820,232.412 188.000,231.449 188.000 C 230.380 188.000,229.504 188.234,229.200 188.600 C 228.896 188.966,228.020 189.200,226.951 189.200 C 225.988 189.200,225.200 189.380,225.200 189.600 C 225.200 189.820,224.930 190.000,224.600 190.000 C 223.680 190.000,223.821 187.486,224.791 186.609 C 225.225 186.215,225.482 185.733,225.361 185.537 C 225.240 185.341,225.367 185.230,225.644 185.290 C 225.920 185.351,226.412 184.860,226.735 184.200 C 227.059 183.540,227.476 182.940,227.662 182.867 C 228.231 182.642,228.037 181.300,227.400 181.055 C 227.070 180.929,226.800 180.984,226.800 181.179 C 226.800 181.374,227.025 181.617,227.300 181.719 C 227.659 181.852,227.590 182.114,227.052 182.652 C 226.322 183.383,226.311 183.351,226.566 181.300 C 226.801 179.414,226.750 179.200,226.070 179.200 C 225.653 179.200,224.974 178.750,224.561 178.200 C 224.148 177.650,223.515 177.200,223.154 177.200 C 222.793 177.200,222.274 176.930,222.000 176.600 C 221.726 176.270,221.230 176.000,220.897 176.000 C 220.564 176.000,219.875 175.550,219.365 175.000 C 218.855 174.450,218.170 174.000,217.843 174.000 C 217.515 174.000,217.136 173.820,217.000 173.600 C 216.864 173.380,216.398 173.200,215.964 173.200 C 215.530 173.200,215.071 172.930,214.945 172.600 C 214.818 172.270,214.405 172.000,214.027 172.000 C 213.649 172.000,212.917 171.550,212.400 171.000 C 211.883 170.450,211.132 170.000,210.730 170.000 C 210.329 170.000,210.000 169.820,210.000 169.600 C 210.000 169.380,209.662 169.200,209.249 169.200 C 208.836 169.200,208.274 168.930,208.000 168.600 C 207.726 168.270,207.164 168.000,206.751 168.000 C 206.338 168.000,206.000 167.832,206.000 167.627 C 206.000 167.422,205.658 167.145,205.240 167.013 C 204.186 166.678,201.200 168.293,201.200 169.198 C 201.200 169.592,200.930 170.018,200.600 170.145 C 200.190 170.302,200.000 170.943,200.000 172.164 C 200.000 173.148,199.820 174.064,199.600 174.200 C 199.380 174.336,199.200 174.917,199.200 175.492 C 199.200 177.844,194.707 179.126,192.731 177.338 C 191.945 176.626,191.614 170.214,192.350 169.933 C 192.542 169.860,192.778 168.686,192.874 167.323 C 192.969 165.961,192.902 164.937,192.724 165.047 C 192.546 165.157,192.400 165.037,192.400 164.781 C 192.400 164.524,192.673 164.419,193.007 164.547 C 193.341 164.675,193.971 164.475,194.407 164.101 C 195.218 163.407,195.522 162.554,194.800 163.000 C 194.580 163.136,194.400 163.037,194.400 162.781 C 194.400 162.521,194.679 162.421,195.030 162.556 C 195.595 162.773,196.800 162.006,196.800 161.429 C 196.800 160.715,195.321 161.418,193.777 162.865 C 192.500 164.061,192.000 164.843,192.000 165.641 C 192.000 166.253,191.820 166.864,191.600 167.000 C 191.380 167.136,191.200 167.935,191.200 168.775 C 191.200 169.644,190.942 170.516,190.600 170.800 C 189.405 171.792,189.796 176.163,191.209 177.610 C 193.516 179.970,199.600 178.593,199.600 175.711 C 199.600 174.990,199.780 174.400,200.000 174.400 C 200.871 174.400,200.405 177.202,199.334 178.403 C 198.275 179.591,195.600 180.162,195.600 179.200 C 195.600 178.980,195.426 178.800,195.213 178.800 C 194.999 178.800,194.929 179.070,195.055 179.400 C 195.967 181.775,200.800 178.959,200.800 176.053 C 200.800 175.159,201.055 174.286,201.400 174.000 C 201.743 173.715,202.000 172.843,202.000 171.965 C 202.000 170.025,204.048 167.610,205.014 168.411 C 205.332 168.676,206.083 168.787,206.695 168.661 C 207.303 168.535,207.585 168.526,207.322 168.642 C 206.643 168.940,207.151 170.000,207.973 170.000 C 208.351 170.000,209.083 170.450,209.600 171.000 C 210.117 171.550,210.868 172.000,211.270 172.000 C 211.671 172.000,212.000 172.180,212.000 172.400 C 212.000 172.620,212.338 172.800,212.751 172.800 C 213.164 172.800,213.726 173.070,214.000 173.400 C 214.274 173.730,214.770 174.000,215.103 174.000 C 215.436 174.000,216.125 174.450,216.635 175.000 C 217.145 175.550,217.830 176.000,218.157 176.000 C 218.485 176.000,218.875 176.198,219.025 176.440 C 219.185 176.699,219.814 176.782,220.549 176.641 C 221.321 176.493,221.594 176.534,221.261 176.748 C 220.666 177.132,222.101 178.800,223.026 178.800 C 223.288 178.800,223.726 179.070,224.000 179.400 C 224.274 179.730,224.845 180.000,225.270 180.000 C 225.956 180.000,226.032 180.266,225.956 182.383 C 225.909 183.694,225.732 184.681,225.563 184.577 C 225.394 184.472,225.142 184.570,225.004 184.793 C 224.594 185.457,221.212 185.296,220.945 184.600 C 220.818 184.270,220.405 184.000,220.027 184.000 C 219.649 184.000,218.917 183.550,218.400 183.000 C 217.546 182.091,215.200 181.554,215.200 182.269 C 215.200 182.853,216.566 184.000,217.262 184.000 C 217.668 184.000,218.000 184.180,218.000 184.400 C 218.000 184.620,218.338 184.800,218.751 184.800 C 219.164 184.800,219.726 185.070,220.000 185.400 C 220.274 185.730,220.744 186.000,221.044 186.000 C 222.453 186.000,223.843 188.355,222.811 188.993 C 222.597 189.126,222.126 189.856,221.765 190.617 C 221.118 191.982,218.000 192.796,218.000 191.600 C 218.000 191.380,217.662 191.200,217.249 191.200 C 216.836 191.200,216.274 190.930,216.000 190.600 C 215.726 190.270,215.230 190.000,214.897 190.000 C 214.564 190.000,213.875 189.550,213.365 189.000 C 212.432 187.993,210.659 187.657,210.200 188.400 C 210.064 188.620,210.292 188.800,210.707 188.800 C 211.121 188.800,211.896 189.264,212.429 189.830 C 213.180 190.630,213.665 190.815,214.598 190.657 C 215.259 190.546,215.585 190.544,215.322 190.653 C 214.637 190.938,215.155 192.000,215.981 192.000 C 217.043 192.000,218.258 193.502,217.671 194.089 C 217.412 194.348,217.200 194.884,217.200 195.280 C 217.200 195.676,217.016 196.000,216.790 196.000 C 216.565 196.000,216.209 196.450,216.000 197.000 C 215.483 198.360,213.794 198.336,212.346 196.948 C 210.811 195.478,210.000 195.899,210.000 198.164 C 210.000 199.148,209.820 200.064,209.600 200.200 C 209.380 200.336,209.200 200.797,209.200 201.224 C 209.200 201.863,208.917 202.000,207.600 202.000 C 205.881 202.000,205.244 200.162,206.500 198.830 C 206.900 198.406,206.900 198.263,206.500 198.117 C 206.225 198.016,206.000 197.642,206.000 197.286 C 206.000 196.254,203.567 194.000,202.453 194.000 C 201.355 194.000,200.000 192.971,200.000 192.138 C 200.000 191.424,198.550 190.000,197.824 190.000 C 197.507 190.000,197.136 189.820,197.000 189.600 C 196.864 189.380,196.234 189.200,195.600 189.200 C 194.966 189.200,194.336 189.380,194.200 189.600 C 193.759 190.313,192.314 190.024,191.402 189.040 C 190.805 188.396,189.999 188.048,188.956 187.984 C 186.378 187.825,185.839 187.956,184.696 189.016 L 183.600 190.032 182.504 189.016 C 180.962 187.586,178.136 187.578,176.800 189.000 C 175.877 189.983,174.000 190.385,174.000 189.600 C 174.000 189.380,173.364 189.200,172.587 189.200 C 171.701 189.200,171.089 188.977,170.945 188.600 C 170.789 188.194,170.153 188.000,168.981 188.000 C 168.027 188.000,167.136 187.820,167.000 187.600 C 166.864 187.380,166.245 187.200,165.625 187.200 C 165.005 187.200,164.274 186.930,164.000 186.600 C 163.726 186.270,163.164 186.000,162.751 186.000 C 162.050 186.000,162.000 185.603,162.000 180.000 C 162.000 176.267,162.151 174.000,162.400 174.000 C 162.620 174.000,162.800 173.023,162.800 171.829 C 162.800 170.432,163.014 169.443,163.400 169.057 C 163.730 168.727,164.000 167.904,164.000 167.229 C 164.000 166.553,164.180 166.000,164.400 166.000 C 164.620 166.000,164.800 165.662,164.800 165.249 C 164.800 164.836,165.070 164.274,165.400 164.000 C 165.730 163.726,166.000 163.164,166.000 162.751 C 166.000 161.948,166.592 161.740,167.000 162.400 C 167.136 162.620,167.755 162.800,168.375 162.800 C 168.995 162.800,169.726 163.070,170.000 163.400 C 170.284 163.742,171.156 164.000,172.025 164.000 C 172.865 164.000,173.664 164.180,173.800 164.400 C 173.936 164.620,174.672 164.800,175.436 164.800 C 176.302 164.800,176.912 165.026,177.055 165.400 C 177.209 165.801,177.841 166.000,178.963 166.000 C 179.885 166.000,180.879 166.225,181.170 166.500 C 181.594 166.900,181.737 166.900,181.883 166.500 C 181.984 166.225,182.390 166.000,182.784 166.000 C 183.179 166.000,183.726 165.730,184.000 165.400 C 184.274 165.070,184.770 164.800,185.103 164.800 C 185.436 164.800,186.125 164.350,186.635 163.800 C 187.145 163.250,187.809 162.800,188.111 162.800 C 188.413 162.800,189.083 162.350,189.600 161.800 C 190.117 161.250,190.853 160.800,191.236 160.800 C 191.620 160.800,191.993 160.665,192.067 160.500 C 192.140 160.335,192.879 159.855,193.708 159.433 L 195.216 158.665 196.330 159.733 C 197.715 161.060,198.403 161.074,199.600 159.800 C 200.117 159.250,200.868 158.800,201.270 158.800 C 201.671 158.800,202.000 158.620,202.000 158.400 C 202.000 158.180,202.900 158.000,204.000 158.000 C 205.100 158.000,206.000 158.180,206.000 158.400 M192.400 168.600 C 192.400 169.150,192.220 169.600,192.000 169.600 C 191.780 169.600,191.600 169.150,191.600 168.600 C 191.600 168.050,191.780 167.600,192.000 167.600 C 192.220 167.600,192.400 168.050,192.400 168.600 M203.000 168.800 C 202.149 169.740,201.600 169.829,201.600 169.028 C 201.600 168.713,202.005 168.378,202.500 168.282 C 202.995 168.187,203.473 168.084,203.562 168.054 C 203.651 168.025,203.398 168.360,203.000 168.800 M201.600 171.957 C 201.600 172.972,201.391 173.595,201.000 173.745 C 200.522 173.928,200.400 173.612,200.400 172.187 C 200.400 170.865,200.556 170.400,201.000 170.400 C 201.431 170.400,201.600 170.840,201.600 171.957 M211.745 171.000 C 211.898 171.401,211.728 171.600,211.230 171.600 C 210.821 171.600,210.382 171.330,210.255 171.000 C 210.102 170.599,210.272 170.400,210.770 170.400 C 211.179 170.400,211.618 170.670,211.745 171.000 M191.600 174.033 C 191.600 177.628,190.665 177.771,190.478 174.206 C 190.371 172.155,190.677 171.257,191.500 171.206 C 191.555 171.203,191.600 172.475,191.600 174.033 M218.561 175.041 C 218.865 175.835,218.109 175.733,217.163 174.852 C 216.364 174.107,216.365 174.104,217.353 174.293 C 217.899 174.398,218.443 174.734,218.561 175.041 M217.745 183.000 C 217.898 183.401,217.728 183.600,217.230 183.600 C 216.821 183.600,216.382 183.330,216.255 183.000 C 216.102 182.599,216.272 182.400,216.770 182.400 C 217.179 182.400,217.618 182.670,217.745 183.000 M224.317 186.255 C 223.957 186.615,223.378 186.800,223.031 186.667 C 221.944 186.250,222.342 185.600,223.686 185.600 C 224.876 185.600,224.923 185.648,224.317 186.255 M190.700 189.100 C 190.792 189.375,190.582 189.600,190.233 189.600 C 189.885 189.600,189.600 189.420,189.600 189.200 C 189.600 188.980,189.426 188.800,189.213 188.800 C 188.999 188.800,188.929 189.070,189.055 189.400 C 189.182 189.730,189.567 190.000,189.911 190.000 C 190.797 190.000,192.000 191.188,192.000 192.062 C 192.000 192.468,192.180 192.800,192.400 192.800 C 192.620 192.800,192.800 192.635,192.800 192.433 C 192.800 192.231,192.921 191.751,193.068 191.367 C 193.243 190.911,193.183 190.763,192.896 190.941 C 192.653 191.091,192.355 191.051,192.233 190.853 C 191.750 190.072,197.374 190.875,198.300 191.719 C 199.220 192.558,199.531 194.548,198.811 194.993 C 198.199 195.371,196.606 199.123,196.770 199.800 C 196.823 200.020,196.733 200.067,196.570 199.903 C 196.174 199.507,195.200 200.347,195.200 201.085 C 195.200 202.623,191.652 203.916,190.920 202.645 C 190.744 202.339,190.240 202.018,189.800 201.931 C 189.162 201.805,189.009 201.474,189.045 200.297 C 189.069 199.485,188.934 198.917,188.745 199.034 C 188.555 199.151,188.400 199.044,188.400 198.797 C 188.400 198.528,188.723 198.449,189.200 198.600 C 189.824 198.798,190.000 198.672,190.000 198.027 C 190.000 196.887,189.694 196.981,188.121 198.600 C 186.765 199.997,186.000 200.357,186.000 199.600 C 186.000 199.380,185.671 199.200,185.270 199.200 C 183.968 199.200,182.660 197.401,182.941 195.997 C 183.094 195.228,183.039 194.852,182.794 195.004 C 182.577 195.138,182.400 195.044,182.400 194.797 C 182.400 194.528,182.723 194.449,183.200 194.600 C 183.808 194.793,184.000 194.672,184.000 194.097 C 184.000 193.680,184.450 192.917,185.000 192.400 C 185.550 191.883,186.000 191.151,186.000 190.773 C 186.000 190.395,186.270 189.982,186.600 189.855 C 186.930 189.729,187.200 189.438,187.200 189.209 C 187.200 188.949,186.900 188.980,186.400 189.293 C 185.960 189.568,185.594 190.154,185.587 190.596 C 185.581 191.038,185.131 191.723,184.587 192.119 C 183.102 193.200,183.195 191.177,184.700 189.660 C 185.920 188.431,190.340 188.018,190.700 189.100 M196.600 190.000 C 196.744 190.233,196.337 190.400,195.624 190.400 C 194.951 190.400,194.400 190.220,194.400 190.000 C 194.400 189.780,194.839 189.600,195.376 189.600 C 195.913 189.600,196.464 189.780,196.600 190.000 M191.200 194.000 C 191.200 194.440,191.380 194.800,191.600 194.800 C 191.820 194.800,192.000 194.440,192.000 194.000 C 192.000 193.560,191.820 193.200,191.600 193.200 C 191.380 193.200,191.200 193.560,191.200 194.000 M200.361 193.753 C 200.715 194.180,200.681 194.360,200.210 194.541 C 199.791 194.702,199.600 194.529,199.600 193.987 C 199.600 193.055,199.745 193.010,200.361 193.753 M203.291 194.735 C 202.898 194.985,202.954 195.255,203.538 195.929 C 204.297 196.803,205.060 197.145,204.603 196.405 C 204.457 196.168,204.640 196.117,205.059 196.278 C 205.444 196.426,205.570 196.610,205.338 196.687 C 205.106 196.765,204.995 197.238,205.090 197.738 C 205.191 198.263,204.996 198.871,204.632 199.173 C 204.284 199.462,204.000 200.205,204.000 200.825 C 204.000 201.445,203.820 202.064,203.600 202.200 C 203.380 202.336,203.200 202.726,203.200 203.066 C 203.200 203.406,202.762 204.029,202.227 204.450 C 201.692 204.871,201.197 205.617,201.127 206.108 C 200.896 207.733,197.908 207.588,196.189 205.869 C 195.001 204.681,194.892 204.421,195.405 203.996 C 195.732 203.724,196.000 203.164,196.000 202.751 C 196.000 202.338,196.180 202.000,196.400 202.000 C 196.620 202.000,196.800 201.662,196.800 201.249 C 196.800 200.836,197.070 200.274,197.400 200.000 C 197.730 199.726,198.000 199.245,198.000 198.932 C 198.000 198.618,198.428 197.965,198.952 197.480 C 199.475 196.995,199.972 196.238,200.056 195.799 C 200.162 195.247,200.640 194.924,201.605 194.753 C 203.684 194.384,203.847 194.382,203.291 194.735 M190.212 195.717 C 190.041 196.112,190.013 196.547,190.151 196.684 C 190.557 197.090,190.884 196.520,190.697 195.731 C 190.532 195.033,190.510 195.032,190.212 195.717 M199.046 196.725 C 198.451 197.320,198.400 197.304,198.400 196.519 C 198.400 196.050,198.625 195.589,198.900 195.493 C 199.674 195.225,199.767 196.005,199.046 196.725 M208.200 195.600 C 208.336 195.820,208.797 196.000,209.224 196.000 C 209.651 196.000,210.000 195.820,210.000 195.600 C 210.000 195.380,209.539 195.200,208.976 195.200 C 208.396 195.200,208.060 195.373,208.200 195.600 M196.400 201.000 C 196.400 201.330,196.220 201.600,196.000 201.600 C 195.780 201.600,195.600 201.330,195.600 201.000 C 195.600 200.670,195.780 200.400,196.000 200.400 C 196.220 200.400,196.400 200.670,196.400 201.000 " stroke="none" fill="#7ca444" fill-rule="evenodd"></path><path id="path2" d="M202.000 158.400 C 202.000 158.620,201.671 158.800,201.270 158.800 C 200.868 158.800,200.117 159.250,199.600 159.800 C 198.403 161.074,197.715 161.060,196.330 159.733 L 195.216 158.665 193.708 159.433 C 192.879 159.855,192.140 160.335,192.067 160.500 C 191.993 160.665,191.620 160.800,191.236 160.800 C 190.853 160.800,190.117 161.250,189.600 161.800 C 189.083 162.350,188.413 162.800,188.111 162.800 C 187.809 162.800,187.145 163.250,186.635 163.800 C 186.125 164.350,185.436 164.800,185.103 164.800 C 184.770 164.800,184.274 165.070,184.000 165.400 C 183.726 165.730,183.179 166.000,182.784 166.000 C 182.390 166.000,181.984 166.225,181.883 166.500 C 181.737 166.900,181.594 166.900,181.170 166.500 C 180.879 166.225,179.885 166.000,178.963 166.000 C 177.841 166.000,177.209 165.801,177.055 165.400 C 176.912 165.026,176.302 164.800,175.436 164.800 C 174.672 164.800,173.936 164.620,173.800 164.400 C 173.664 164.180,172.865 164.000,172.025 164.000 C 171.156 164.000,170.284 163.742,170.000 163.400 C 169.726 163.070,168.995 162.800,168.375 162.800 C 167.755 162.800,167.136 162.620,167.000 162.400 C 166.592 161.740,166.000 161.948,166.000 162.751 C 166.000 163.164,165.730 163.726,165.400 164.000 C 165.070 164.274,164.800 164.836,164.800 165.249 C 164.800 165.662,164.620 166.000,164.400 166.000 C 164.180 166.000,164.000 166.553,164.000 167.229 C 164.000 167.904,163.730 168.727,163.400 169.057 C 163.014 169.443,162.800 170.432,162.800 171.829 C 162.800 173.023,162.620 174.000,162.400 174.000 C 162.151 174.000,162.000 176.267,162.000 180.000 C 162.000 185.603,162.050 186.000,162.751 186.000 C 163.164 186.000,163.726 186.270,164.000 186.600 C 164.274 186.930,165.005 187.200,165.625 187.200 C 166.245 187.200,166.864 187.380,167.000 187.600 C 167.136 187.820,168.027 188.000,168.981 188.000 C 170.153 188.000,170.789 188.194,170.945 188.600 C 171.089 188.977,171.701 189.200,172.587 189.200 C 173.364 189.200,174.000 189.380,174.000 189.600 C 174.000 190.385,175.877 189.983,176.800 189.000 C 178.301 187.402,183.200 187.987,183.200 189.764 C 183.200 190.286,181.270 189.958,181.055 189.400 C 180.660 188.370,179.688 188.733,177.811 190.611 C 175.685 192.736,175.604 193.266,177.169 194.831 C 179.522 197.184,183.200 195.410,183.200 191.922 C 183.200 190.156,184.980 188.077,186.600 187.950 C 188.956 187.767,190.559 188.131,191.402 189.040 C 192.314 190.024,193.759 190.313,194.200 189.600 C 194.336 189.380,194.966 189.200,195.600 189.200 C 196.234 189.200,196.864 189.380,197.000 189.600 C 197.136 189.820,197.507 190.000,197.824 190.000 C 198.550 190.000,200.000 191.424,200.000 192.138 C 200.000 192.971,201.355 194.000,202.453 194.000 C 203.567 194.000,206.000 196.254,206.000 197.286 C 206.000 197.642,206.225 198.016,206.500 198.117 C 206.900 198.263,206.900 198.406,206.500 198.830 C 205.244 200.162,205.881 202.000,207.600 202.000 C 208.917 202.000,209.200 201.863,209.200 201.224 C 209.200 200.797,209.380 200.336,209.600 200.200 C 209.820 200.064,210.000 199.148,210.000 198.164 C 210.000 195.899,210.811 195.478,212.346 196.948 C 213.794 198.336,215.483 198.360,216.000 197.000 C 216.209 196.450,216.565 196.000,216.790 196.000 C 217.016 196.000,217.200 195.676,217.200 195.280 C 217.200 194.884,217.412 194.348,217.671 194.089 C 218.258 193.502,217.043 192.000,215.981 192.000 C 215.598 192.000,215.182 191.730,215.055 191.400 C 214.929 191.070,214.491 190.800,214.082 190.800 C 213.674 190.800,212.917 190.350,212.400 189.800 C 211.883 189.250,211.121 188.800,210.707 188.800 C 210.292 188.800,210.064 188.620,210.200 188.400 C 210.659 187.657,212.432 187.993,213.365 189.000 C 213.875 189.550,214.564 190.000,214.897 190.000 C 215.230 190.000,215.726 190.270,216.000 190.600 C 216.274 190.930,216.836 191.200,217.249 191.200 C 217.662 191.200,218.000 191.380,218.000 191.600 C 218.000 192.796,221.118 191.982,221.765 190.617 C 222.126 189.856,222.597 189.126,222.811 188.993 C 223.843 188.355,222.453 186.000,221.044 186.000 C 220.744 186.000,220.274 185.730,220.000 185.400 C 219.726 185.070,219.164 184.800,218.751 184.800 C 218.338 184.800,218.000 184.620,218.000 184.400 C 218.000 184.180,217.668 184.000,217.262 184.000 C 216.566 184.000,215.200 182.853,215.200 182.269 C 215.200 181.554,217.546 182.091,218.400 183.000 C 218.917 183.550,219.649 184.000,220.027 184.000 C 220.405 184.000,220.818 184.270,220.945 184.600 C 221.290 185.500,224.492 185.404,225.338 184.469 C 226.327 183.375,226.260 180.000,225.249 180.000 C 224.836 180.000,224.274 179.730,224.000 179.400 C 223.726 179.070,223.273 178.800,222.993 178.800 C 222.713 178.800,222.060 178.353,221.542 177.807 C 221.024 177.261,220.296 176.811,219.924 176.807 C 219.552 176.803,219.136 176.620,219.000 176.400 C 218.864 176.180,218.485 176.000,218.157 176.000 C 217.830 176.000,217.145 175.550,216.635 175.000 C 216.125 174.450,215.436 174.000,215.103 174.000 C 214.770 174.000,214.274 173.730,214.000 173.400 C 213.726 173.070,213.164 172.800,212.751 172.800 C 212.338 172.800,212.000 172.620,212.000 172.400 C 212.000 172.180,211.671 172.000,211.270 172.000 C 210.868 172.000,210.117 171.550,209.600 171.000 C 209.083 170.450,208.351 170.000,207.973 170.000 C 207.595 170.000,207.182 169.730,207.055 169.400 C 206.929 169.070,206.495 168.800,206.093 168.800 C 205.690 168.800,205.159 168.599,204.913 168.353 C 204.101 167.541,202.000 170.147,202.000 171.965 C 202.000 172.843,201.743 173.715,201.400 174.000 C 201.055 174.286,200.800 175.159,200.800 176.053 C 200.800 178.959,195.967 181.775,195.055 179.400 C 194.920 179.047,194.320 178.800,193.599 178.800 C 190.717 178.800,188.402 172.624,190.600 170.800 C 190.942 170.516,191.200 169.644,191.200 168.775 C 191.200 167.935,191.380 167.136,191.600 167.000 C 191.820 166.864,192.000 166.253,192.000 165.641 C 192.000 164.422,195.030 161.200,196.177 161.200 C 197.121 161.200,196.969 161.469,194.800 163.638 C 192.889 165.549,192.800 165.735,192.800 167.819 C 192.800 169.019,192.620 170.000,192.400 170.000 C 191.614 170.000,191.912 176.596,192.731 177.338 C 194.707 179.126,199.200 177.844,199.200 175.492 C 199.200 174.917,199.380 174.336,199.600 174.200 C 199.820 174.064,200.000 173.148,200.000 172.164 C 200.000 170.943,200.190 170.302,200.600 170.145 C 200.930 170.018,201.200 169.592,201.200 169.198 C 201.200 168.293,204.186 166.678,205.240 167.013 C 205.658 167.145,206.000 167.422,206.000 167.627 C 206.000 167.832,206.338 168.000,206.751 168.000 C 207.164 168.000,207.726 168.270,208.000 168.600 C 208.274 168.930,208.836 169.200,209.249 169.200 C 209.662 169.200,210.000 169.380,210.000 169.600 C 210.000 169.820,210.329 170.000,210.730 170.000 C 211.132 170.000,211.883 170.450,212.400 171.000 C 212.917 171.550,213.649 172.000,214.027 172.000 C 214.405 172.000,214.818 172.270,214.945 172.600 C 215.071 172.930,215.530 173.200,215.964 173.200 C 216.398 173.200,216.864 173.380,217.000 173.600 C 217.136 173.820,217.515 174.000,217.843 174.000 C 218.170 174.000,218.855 174.450,219.365 175.000 C 219.875 175.550,220.564 176.000,220.897 176.000 C 221.230 176.000,221.726 176.270,222.000 176.600 C 222.274 176.930,222.793 177.200,223.154 177.200 C 223.515 177.200,224.148 177.650,224.561 178.200 C 224.974 178.750,225.647 179.200,226.056 179.200 C 226.537 179.200,226.800 179.487,226.800 180.013 C 226.800 180.459,227.070 180.929,227.400 181.055 C 228.059 181.308,228.237 182.800,227.608 182.800 C 227.392 182.800,227.108 183.228,226.976 183.752 C 226.845 184.275,226.122 185.301,225.369 186.030 C 223.876 187.477,223.387 190.000,224.600 190.000 C 224.930 190.000,225.200 189.820,225.200 189.600 C 225.200 189.380,225.988 189.200,226.951 189.200 C 228.020 189.200,228.896 188.966,229.200 188.600 C 229.504 188.234,230.380 188.000,231.449 188.000 C 232.412 188.000,233.200 187.820,233.200 187.600 C 233.200 187.380,233.695 187.194,234.300 187.187 C 236.923 187.155,237.200 186.382,237.200 179.085 C 237.200 173.718,237.089 172.406,236.600 172.000 C 236.270 171.726,236.000 170.905,236.000 170.175 C 236.000 169.445,235.820 168.736,235.600 168.600 C 235.380 168.464,235.200 167.935,235.200 167.425 C 235.200 166.915,234.930 166.274,234.600 166.000 C 234.270 165.726,234.000 165.164,234.000 164.751 C 234.000 164.338,233.820 164.000,233.600 164.000 C 233.380 164.000,233.200 163.651,233.200 163.224 C 233.200 162.330,232.325 161.625,232.090 162.329 C 232.002 162.593,231.177 162.800,230.216 162.800 C 229.177 162.800,228.301 163.037,228.000 163.400 C 227.696 163.766,226.820 164.000,225.751 164.000 C 224.788 164.000,224.000 164.180,224.000 164.400 C 224.000 164.620,223.212 164.800,222.249 164.800 C 221.180 164.800,220.304 165.034,220.000 165.400 C 219.294 166.251,218.678 166.148,217.600 165.000 C 217.083 164.450,216.351 164.000,215.973 164.000 C 215.595 164.000,215.182 163.730,215.055 163.400 C 214.929 163.070,214.491 162.800,214.082 162.800 C 213.674 162.800,212.917 162.350,212.400 161.800 C 211.883 161.250,211.132 160.800,210.730 160.800 C 210.329 160.800,210.000 160.620,210.000 160.400 C 210.000 160.180,209.662 160.000,209.249 160.000 C 208.836 160.000,208.274 159.730,208.000 159.400 C 207.726 159.070,207.164 158.800,206.751 158.800 C 206.338 158.800,206.000 158.620,206.000 158.400 C 206.000 158.180,205.100 158.000,204.000 158.000 C 202.900 158.000,202.000 158.180,202.000 158.400 M205.800 158.800 C 205.936 159.020,206.377 159.200,206.781 159.200 C 207.184 159.200,207.618 159.470,207.745 159.800 C 207.871 160.130,208.330 160.400,208.764 160.400 C 209.198 160.400,209.664 160.580,209.800 160.800 C 209.936 161.020,210.315 161.200,210.643 161.200 C 210.970 161.200,211.655 161.650,212.165 162.200 C 212.675 162.750,213.364 163.200,213.697 163.200 C 214.030 163.200,214.526 163.470,214.800 163.800 C 215.074 164.130,215.593 164.400,215.954 164.400 C 216.315 164.400,216.948 164.850,217.361 165.400 C 218.197 166.513,219.892 166.747,220.255 165.800 C 220.417 165.380,221.072 165.200,222.443 165.200 C 223.519 165.200,224.400 165.020,224.400 164.800 C 224.400 164.580,225.216 164.400,226.213 164.400 C 227.455 164.400,228.098 164.211,228.255 163.800 C 228.416 163.382,229.068 163.200,230.409 163.200 C 231.574 163.200,232.413 163.003,232.535 162.700 C 232.646 162.425,232.751 162.594,232.768 163.076 C 232.786 163.558,232.980 164.064,233.200 164.200 C 233.420 164.336,233.600 164.802,233.600 165.236 C 233.600 165.670,233.870 166.129,234.200 166.255 C 234.538 166.385,234.800 166.981,234.800 167.619 C 234.800 168.243,234.980 168.864,235.200 169.000 C 235.420 169.136,235.600 169.872,235.600 170.636 C 235.600 171.502,235.826 172.112,236.200 172.255 C 236.699 172.447,236.800 173.561,236.800 178.843 C 236.800 185.944,236.499 186.800,234.000 186.800 C 233.340 186.800,232.800 186.980,232.800 187.200 C 232.800 187.420,231.984 187.600,230.987 187.600 C 229.745 187.600,229.102 187.789,228.945 188.200 C 228.784 188.618,228.132 188.800,226.791 188.800 C 225.626 188.800,224.787 188.997,224.665 189.300 C 224.554 189.575,224.449 189.293,224.432 188.673 C 224.409 187.879,224.813 187.157,225.800 186.226 C 226.570 185.500,227.200 184.606,227.200 184.240 C 227.200 183.874,227.470 183.471,227.800 183.345 C 228.135 183.216,228.400 182.622,228.400 182.000 C 228.400 181.378,228.135 180.784,227.800 180.655 C 227.470 180.529,227.200 180.059,227.200 179.613 C 227.200 179.087,226.937 178.800,226.456 178.800 C 226.047 178.800,225.374 178.350,224.961 177.800 C 224.548 177.250,223.822 176.800,223.348 176.800 C 222.874 176.800,222.382 176.530,222.255 176.200 C 222.129 175.870,221.742 175.600,221.395 175.600 C 221.049 175.600,220.280 175.150,219.687 174.600 C 219.093 174.050,218.291 173.600,217.904 173.600 C 217.517 173.600,217.200 173.420,217.200 173.200 C 217.200 172.980,216.834 172.800,216.387 172.800 C 215.941 172.800,215.471 172.530,215.345 172.200 C 215.218 171.870,214.726 171.600,214.252 171.600 C 213.778 171.600,213.052 171.150,212.639 170.600 C 212.226 170.050,211.553 169.600,211.144 169.600 C 210.735 169.600,210.400 169.420,210.400 169.200 C 210.400 168.980,209.969 168.800,209.443 168.800 C 208.916 168.800,208.382 168.530,208.255 168.200 C 208.129 167.870,207.659 167.600,207.213 167.600 C 206.766 167.600,206.400 167.420,206.400 167.200 C 206.400 166.980,206.145 166.800,205.833 166.800 C 205.522 166.800,205.185 166.575,205.086 166.300 C 204.945 165.911,204.694 165.927,203.952 166.374 C 203.429 166.689,202.505 167.197,201.900 167.503 C 201.295 167.809,200.800 168.386,200.800 168.787 C 200.800 169.187,200.530 169.618,200.200 169.745 C 199.790 169.902,199.600 170.543,199.600 171.764 C 199.600 172.748,199.420 173.664,199.200 173.800 C 198.980 173.936,198.800 174.602,198.800 175.280 C 198.800 177.376,194.584 178.641,192.971 177.029 C 192.299 176.356,192.145 170.400,192.800 170.400 C 193.020 170.400,193.200 169.396,193.200 168.168 C 193.200 165.934,196.748 161.200,198.422 161.200 C 198.690 161.200,199.325 160.750,199.835 160.200 C 200.345 159.650,201.130 159.200,201.581 159.200 C 202.031 159.200,202.400 159.020,202.400 158.800 C 202.400 158.580,203.109 158.400,203.976 158.400 C 204.843 158.400,205.664 158.580,205.800 158.800 M196.000 160.000 L 196.800 160.800 195.981 160.800 C 194.628 160.800,191.600 164.087,191.600 165.556 C 191.600 166.240,191.420 166.800,191.200 166.800 C 190.980 166.800,190.800 167.498,190.800 168.351 C 190.800 169.242,190.545 170.114,190.200 170.400 C 187.972 172.249,190.365 179.200,193.229 179.200 C 193.819 179.200,194.526 179.470,194.800 179.800 C 196.630 182.005,201.200 179.474,201.200 176.256 C 201.200 175.051,201.392 174.412,201.800 174.255 C 202.199 174.102,202.400 173.474,202.400 172.382 C 202.400 171.089,202.656 170.482,203.600 169.538 C 204.260 168.878,204.800 168.532,204.800 168.769 C 204.800 169.006,205.138 169.200,205.551 169.200 C 205.964 169.200,206.526 169.470,206.800 169.800 C 207.074 170.130,207.593 170.400,207.954 170.400 C 208.315 170.400,208.948 170.850,209.361 171.400 C 209.774 171.950,210.436 172.400,210.832 172.400 C 211.229 172.400,211.664 172.580,211.800 172.800 C 211.936 173.020,212.377 173.200,212.781 173.200 C 213.184 173.200,213.618 173.470,213.745 173.800 C 213.871 174.130,214.309 174.400,214.718 174.400 C 215.126 174.400,215.883 174.850,216.400 175.400 C 216.917 175.950,217.668 176.400,218.070 176.400 C 218.471 176.400,218.800 176.580,218.800 176.800 C 218.800 177.020,219.129 177.200,219.530 177.200 C 219.932 177.200,220.683 177.650,221.200 178.200 C 221.717 178.750,222.449 179.200,222.827 179.200 C 223.205 179.200,223.618 179.470,223.745 179.800 C 223.871 180.130,224.341 180.400,224.787 180.400 C 225.763 180.400,225.937 182.922,225.043 184.100 C 224.366 184.992,221.676 185.065,221.345 184.200 C 221.218 183.870,220.726 183.600,220.252 183.600 C 219.778 183.600,219.052 183.150,218.639 182.600 C 217.787 181.466,215.338 181.175,214.959 182.162 C 214.681 182.886,215.971 184.400,216.865 184.400 C 217.243 184.400,217.664 184.580,217.800 184.800 C 217.936 185.020,218.377 185.200,218.781 185.200 C 219.184 185.200,219.618 185.470,219.745 185.800 C 219.871 186.130,220.281 186.400,220.656 186.400 C 222.177 186.400,223.434 188.471,222.200 188.945 C 221.870 189.071,221.600 189.463,221.600 189.816 C 221.600 190.169,221.343 190.714,221.029 191.029 C 220.379 191.678,218.400 191.807,218.400 191.200 C 218.400 190.980,217.969 190.800,217.443 190.800 C 216.916 190.800,216.382 190.530,216.255 190.200 C 216.129 189.870,215.725 189.600,215.358 189.600 C 214.992 189.600,214.265 189.139,213.743 188.576 C 212.990 187.764,212.484 187.578,211.297 187.676 C 209.694 187.809,209.157 188.865,210.556 189.135 C 210.972 189.215,211.713 189.712,212.202 190.240 C 212.691 190.768,213.364 191.200,213.697 191.200 C 214.030 191.200,214.526 191.470,214.800 191.800 C 215.074 192.130,215.559 192.400,215.878 192.400 C 216.685 192.400,217.712 193.483,217.203 193.798 C 216.981 193.935,216.800 194.288,216.800 194.582 C 216.800 195.277,214.762 197.600,214.153 197.600 C 213.895 197.600,213.260 197.153,212.742 196.607 C 212.224 196.061,211.485 195.611,211.100 195.607 C 210.715 195.603,210.400 195.420,210.400 195.200 C 210.400 194.980,209.969 194.800,209.443 194.800 C 208.916 194.800,208.382 194.530,208.255 194.200 C 207.965 193.444,207.243 193.423,206.959 194.162 C 206.678 194.895,207.976 196.400,208.889 196.400 C 209.685 196.400,209.954 199.334,209.200 199.800 C 208.980 199.936,208.800 200.397,208.800 200.824 C 208.800 201.420,208.521 201.600,207.600 201.600 C 206.533 201.600,206.400 201.467,206.400 200.400 C 206.400 199.740,206.580 199.200,206.800 199.200 C 207.020 199.200,207.200 198.840,207.200 198.400 C 207.200 197.960,207.020 197.600,206.800 197.600 C 206.580 197.600,206.400 197.312,206.400 196.960 C 206.400 195.900,203.806 193.600,202.611 193.600 C 201.419 193.600,200.400 192.784,200.400 191.829 C 200.400 190.943,198.953 189.600,198.000 189.600 C 197.560 189.600,197.200 189.420,197.200 189.200 C 197.200 188.639,194.549 188.700,193.617 189.282 C 192.958 189.694,192.697 189.606,191.841 188.682 C 191.254 188.049,190.413 187.600,189.814 187.600 C 189.250 187.600,188.408 187.375,187.942 187.100 C 187.265 186.700,187.059 186.700,186.914 187.100 C 186.815 187.375,186.383 187.600,185.954 187.600 C 185.526 187.600,185.071 187.870,184.945 188.200 C 184.816 188.535,184.222 188.800,183.600 188.800 C 182.978 188.800,182.384 188.535,182.255 188.200 C 181.836 187.106,177.600 187.403,176.458 188.607 C 175.440 189.680,174.986 189.825,174.600 189.200 C 174.464 188.980,173.728 188.800,172.964 188.800 C 172.098 188.800,171.488 188.574,171.345 188.200 C 171.183 187.780,170.528 187.600,169.157 187.600 C 168.081 187.600,167.200 187.420,167.200 187.200 C 167.200 186.980,166.589 186.800,165.843 186.800 C 165.005 186.800,164.397 186.570,164.255 186.200 C 164.129 185.870,163.659 185.600,163.213 185.600 C 162.435 185.600,162.400 185.362,162.400 180.000 C 162.400 176.533,162.552 174.400,162.800 174.400 C 163.022 174.400,163.200 173.329,163.200 171.987 C 163.200 170.212,163.358 169.514,163.800 169.345 C 164.170 169.203,164.400 168.595,164.400 167.757 C 164.400 167.011,164.580 166.400,164.800 166.400 C 165.020 166.400,165.200 165.969,165.200 165.443 C 165.200 164.916,165.470 164.382,165.800 164.255 C 166.130 164.129,166.414 163.614,166.432 163.113 C 166.449 162.611,166.554 162.425,166.665 162.700 C 166.776 162.975,167.462 163.200,168.191 163.200 C 168.998 163.200,169.604 163.434,169.745 163.800 C 169.896 164.194,170.520 164.400,171.564 164.400 C 172.438 164.400,173.264 164.580,173.400 164.800 C 173.536 165.020,174.245 165.200,174.975 165.200 C 175.705 165.200,176.526 165.470,176.800 165.800 C 177.104 166.166,177.980 166.400,179.049 166.400 C 180.012 166.400,180.800 166.580,180.800 166.800 C 180.800 167.020,181.160 167.200,181.600 167.200 C 182.040 167.200,182.400 167.020,182.400 166.800 C 182.400 166.580,182.766 166.400,183.213 166.400 C 183.659 166.400,184.129 166.130,184.255 165.800 C 184.382 165.470,184.874 165.200,185.348 165.200 C 185.822 165.200,186.548 164.750,186.961 164.200 C 187.374 163.650,187.981 163.200,188.310 163.200 C 188.639 163.200,189.325 162.750,189.835 162.200 C 190.345 161.650,191.130 161.200,191.581 161.200 C 192.031 161.200,192.400 161.020,192.400 160.800 C 192.400 160.580,192.766 160.400,193.213 160.400 C 193.659 160.400,194.129 160.130,194.255 159.800 C 194.566 158.990,195.045 159.045,196.000 160.000 M186.700 189.633 C 186.315 190.055,186.000 190.639,186.000 190.930 C 186.000 191.222,185.550 191.883,185.000 192.400 C 184.450 192.917,184.000 193.591,184.000 193.898 C 184.000 194.206,183.730 194.727,183.400 195.057 C 182.133 196.325,183.469 199.200,185.326 199.200 C 185.697 199.200,186.000 199.380,186.000 199.600 C 186.000 200.357,186.765 199.997,188.121 198.600 C 188.869 197.830,189.598 197.200,189.740 197.200 C 190.238 197.200,189.995 198.462,189.378 199.079 C 188.518 199.939,188.786 201.753,189.800 201.941 C 190.240 202.023,190.744 202.339,190.920 202.645 C 191.646 203.905,195.200 202.627,195.200 201.106 C 195.200 200.794,195.650 200.117,196.200 199.600 C 196.750 199.083,197.200 198.450,197.200 198.192 C 197.200 197.559,198.358 195.273,198.825 194.984 C 199.540 194.543,199.208 192.547,198.274 191.670 C 196.839 190.322,193.314 190.408,192.964 191.800 C 192.673 192.962,192.000 193.145,192.000 192.062 C 192.000 191.188,190.797 190.000,189.911 190.000 C 189.567 190.000,189.182 189.730,189.055 189.400 C 188.742 188.583,187.551 188.701,186.700 189.633 M180.800 189.800 C 181.074 190.130,181.636 190.400,182.049 190.400 C 183.327 190.400,183.053 192.914,181.613 194.386 C 180.125 195.909,179.059 195.920,177.569 194.431 C 176.101 192.962,176.078 193.107,178.100 191.001 C 180.013 189.008,180.108 188.966,180.800 189.800 M188.800 189.800 C 189.074 190.130,189.559 190.400,189.878 190.400 C 190.196 190.400,190.714 190.657,191.029 190.971 C 191.684 191.627,191.794 192.800,191.200 192.800 C 190.980 192.800,190.800 193.231,190.800 193.757 C 190.800 194.284,190.530 194.818,190.200 194.945 C 189.870 195.071,189.600 195.451,189.600 195.787 C 189.600 196.124,188.880 197.120,188.000 198.000 C 187.120 198.880,186.400 199.420,186.400 199.200 C 186.400 198.980,186.040 198.800,185.600 198.800 C 183.866 198.800,182.355 195.899,183.800 195.345 C 184.130 195.218,184.400 194.726,184.400 194.252 C 184.400 193.778,184.850 193.052,185.400 192.639 C 185.950 192.226,186.400 191.645,186.400 191.349 C 186.400 189.929,188.033 188.875,188.800 189.800 M198.000 192.000 C 198.942 192.942,199.055 194.616,198.200 194.945 C 197.870 195.071,197.600 195.541,197.600 195.987 C 197.600 196.434,197.420 196.800,197.200 196.800 C 196.980 196.800,196.800 197.179,196.800 197.642 C 196.800 198.106,196.350 198.839,195.800 199.271 C 195.250 199.704,194.800 200.315,194.800 200.629 C 194.800 202.179,191.851 203.519,191.345 202.200 C 191.218 201.870,190.684 201.600,190.157 201.600 C 189.043 201.600,188.749 199.748,189.800 199.345 C 190.130 199.218,190.400 198.684,190.400 198.157 C 190.400 197.631,190.580 197.200,190.800 197.200 C 191.020 197.200,191.200 196.834,191.200 196.387 C 191.200 195.941,191.470 195.471,191.800 195.345 C 192.130 195.218,192.400 194.684,192.400 194.157 C 192.400 193.631,192.580 193.200,192.800 193.200 C 193.020 193.200,193.200 192.870,193.200 192.467 C 193.200 190.915,196.586 190.586,198.000 192.000 M192.000 194.000 C 192.000 194.440,191.820 194.800,191.600 194.800 C 191.380 194.800,191.200 194.440,191.200 194.000 C 191.200 193.560,191.380 193.200,191.600 193.200 C 191.820 193.200,192.000 193.560,192.000 194.000 M200.267 195.067 C 200.120 195.213,200.000 195.598,200.000 195.921 C 200.000 196.244,199.550 196.925,199.000 197.435 C 198.450 197.945,198.000 198.618,198.000 198.932 C 198.000 199.245,197.730 199.726,197.400 200.000 C 197.070 200.274,196.800 200.836,196.800 201.249 C 196.800 201.662,196.620 202.000,196.400 202.000 C 196.180 202.000,196.000 202.338,196.000 202.751 C 196.000 203.164,195.732 203.724,195.405 203.996 C 194.892 204.421,195.001 204.681,196.189 205.869 C 197.908 207.588,200.896 207.733,201.127 206.108 C 201.197 205.617,201.692 204.871,202.227 204.450 C 202.762 204.029,203.200 203.406,203.200 203.066 C 203.200 202.726,203.380 202.336,203.600 202.200 C 203.820 202.064,204.000 201.445,204.000 200.825 C 204.000 200.205,204.270 199.474,204.600 199.200 C 205.522 198.434,205.325 197.645,203.840 196.160 C 202.575 194.895,200.939 194.394,200.267 195.067 M190.635 196.698 C 190.198 197.135,189.899 196.440,190.212 195.717 C 190.510 195.032,190.532 195.033,190.697 195.731 C 190.793 196.134,190.765 196.569,190.635 196.698 M203.140 196.403 C 204.860 197.649,205.235 198.547,204.200 198.945 C 203.853 199.078,203.600 199.676,203.600 200.364 C 203.600 201.018,203.420 201.664,203.200 201.800 C 202.980 201.936,202.800 202.315,202.800 202.643 C 202.800 202.970,202.350 203.655,201.800 204.165 C 201.250 204.675,200.800 205.476,200.800 205.946 C 200.800 207.346,198.206 207.134,196.755 205.616 C 196.133 204.965,195.799 204.324,196.012 204.193 C 196.225 204.061,196.400 203.603,196.400 203.176 C 196.400 202.749,196.580 202.400,196.800 202.400 C 197.020 202.400,197.200 201.969,197.200 201.443 C 197.200 200.916,197.470 200.382,197.800 200.255 C 198.130 200.129,198.400 199.725,198.400 199.358 C 198.400 198.992,198.850 198.275,199.400 197.765 C 199.950 197.255,200.400 196.470,200.400 196.019 C 200.400 194.883,201.196 194.995,203.140 196.403 M210.000 195.600 C 210.000 195.820,209.651 196.000,209.224 196.000 C 208.797 196.000,208.336 195.820,208.200 195.600 C 208.060 195.373,208.396 195.200,208.976 195.200 C 209.539 195.200,210.000 195.380,210.000 195.600 " stroke="none" fill="#dce4cc" fill-rule="evenodd"></path><path id="path3" d="M197.600 133.000 C 197.600 133.489,196.933 133.600,194.000 133.600 C 191.867 133.600,190.400 133.763,190.400 134.000 C 190.400 134.220,189.584 134.400,188.587 134.400 C 187.345 134.400,186.702 134.589,186.545 135.000 C 186.418 135.330,185.884 135.600,185.357 135.600 C 184.831 135.600,184.400 135.780,184.400 136.000 C 184.400 136.220,183.770 136.400,183.000 136.400 C 182.022 136.400,181.600 136.581,181.600 137.000 C 181.600 137.330,181.330 137.600,181.000 137.600 C 180.670 137.600,180.400 137.780,180.400 138.000 C 180.400 138.220,180.034 138.400,179.587 138.400 C 179.141 138.400,178.671 138.670,178.545 139.000 C 178.418 139.330,177.961 139.600,177.529 139.600 C 176.679 139.600,175.600 140.479,175.600 141.171 C 175.600 141.407,175.407 141.600,175.171 141.600 C 174.618 141.600,173.600 142.618,173.600 143.171 C 173.600 143.407,173.228 143.600,172.774 143.600 C 171.692 143.600,167.600 147.692,167.600 148.774 C 167.600 149.228,167.407 149.600,167.171 149.600 C 166.618 149.600,165.600 150.618,165.600 151.171 C 165.600 151.407,165.407 151.600,165.171 151.600 C 164.527 151.600,163.600 152.656,163.600 153.391 C 163.600 153.747,163.150 154.455,162.600 154.965 C 162.050 155.475,161.600 156.276,161.600 156.746 C 161.600 157.238,161.346 157.600,161.000 157.600 C 160.581 157.600,160.400 158.022,160.400 159.000 C 160.400 159.770,160.220 160.400,160.000 160.400 C 159.780 160.400,159.600 160.831,159.600 161.357 C 159.600 161.884,159.330 162.418,159.000 162.545 C 158.589 162.702,158.400 163.345,158.400 164.587 C 158.400 165.584,158.220 166.400,158.000 166.400 C 157.763 166.400,157.600 167.867,157.600 170.000 C 157.600 172.933,157.489 173.600,157.000 173.600 C 156.524 173.600,156.400 174.179,156.400 176.413 C 156.400 178.544,156.545 179.281,157.000 179.455 C 157.458 179.631,157.600 180.383,157.600 182.643 C 157.600 184.348,157.769 185.600,158.000 185.600 C 158.220 185.600,158.400 186.416,158.400 187.413 C 158.400 188.655,158.589 189.298,159.000 189.455 C 159.330 189.582,159.600 190.116,159.600 190.643 C 159.600 191.169,159.780 191.600,160.000 191.600 C 160.220 191.600,160.400 192.146,160.400 192.813 C 160.400 193.521,160.649 194.121,161.000 194.255 C 161.330 194.382,161.600 194.916,161.600 195.443 C 161.600 195.969,161.780 196.400,162.000 196.400 C 162.220 196.400,162.400 196.766,162.400 197.213 C 162.400 197.659,162.670 198.129,163.000 198.255 C 163.330 198.382,163.600 198.916,163.600 199.443 C 163.600 199.969,163.780 200.400,164.000 200.400 C 164.220 200.400,164.400 200.766,164.400 201.213 C 164.400 201.659,164.670 202.129,165.000 202.255 C 165.330 202.382,165.600 202.736,165.600 203.043 C 165.600 203.349,165.780 203.600,166.000 203.600 C 166.220 203.600,166.400 203.966,166.400 204.413 C 166.400 204.859,166.670 205.329,167.000 205.455 C 167.330 205.582,167.600 206.116,167.600 206.643 C 167.600 207.169,167.780 207.600,168.000 207.600 C 168.220 207.600,168.400 207.966,168.400 208.413 C 168.400 208.859,168.670 209.329,169.000 209.455 C 169.330 209.582,169.600 210.116,169.600 210.643 C 169.600 211.169,169.780 211.600,170.000 211.600 C 170.220 211.600,170.400 211.966,170.400 212.413 C 170.400 212.859,170.670 213.329,171.000 213.455 C 171.330 213.582,171.600 214.116,171.600 214.643 C 171.600 215.169,171.780 215.600,172.000 215.600 C 172.220 215.600,172.400 215.966,172.400 216.413 C 172.400 216.859,172.670 217.329,173.000 217.455 C 173.330 217.582,173.600 218.116,173.600 218.643 C 173.600 219.169,173.780 219.600,174.000 219.600 C 174.220 219.600,174.400 219.966,174.400 220.413 C 174.400 220.859,174.670 221.329,175.000 221.455 C 175.330 221.582,175.600 222.116,175.600 222.643 C 175.600 223.169,175.780 223.600,176.000 223.600 C 176.220 223.600,176.400 223.966,176.400 224.413 C 176.400 224.859,176.670 225.329,177.000 225.455 C 177.330 225.582,177.600 226.116,177.600 226.643 C 177.600 227.169,177.780 227.600,178.000 227.600 C 178.220 227.600,178.400 227.966,178.400 228.413 C 178.400 228.859,178.670 229.329,179.000 229.455 C 179.330 229.582,179.600 230.116,179.600 230.643 C 179.600 231.169,179.780 231.600,180.000 231.600 C 180.220 231.600,180.400 231.966,180.400 232.413 C 180.400 232.859,180.670 233.329,181.000 233.455 C 181.330 233.582,181.600 234.116,181.600 234.643 C 181.600 235.169,181.780 235.600,182.000 235.600 C 182.220 235.600,182.400 235.966,182.400 236.413 C 182.400 236.859,182.670 237.329,183.000 237.455 C 183.330 237.582,183.600 238.116,183.600 238.643 C 183.600 239.169,183.780 239.600,184.000 239.600 C 184.220 239.600,184.400 239.966,184.400 240.413 C 184.400 240.859,184.670 241.329,185.000 241.455 C 185.330 241.582,185.600 242.116,185.600 242.643 C 185.600 243.169,185.780 243.600,186.000 243.600 C 186.220 243.600,186.400 243.966,186.400 244.413 C 186.400 244.859,186.670 245.329,187.000 245.455 C 187.330 245.582,187.600 246.116,187.600 246.643 C 187.600 247.169,187.780 247.600,188.000 247.600 C 188.220 247.600,188.400 247.966,188.400 248.413 C 188.400 248.859,188.670 249.329,189.000 249.455 C 189.330 249.582,189.600 250.086,189.600 250.575 C 189.600 251.115,189.994 251.675,190.600 252.000 C 191.228 252.336,191.600 252.882,191.600 253.468 C 191.600 253.980,191.780 254.400,192.000 254.400 C 192.220 254.400,192.400 254.766,192.400 255.213 C 192.400 255.659,192.670 256.129,193.000 256.255 C 193.330 256.382,193.600 256.916,193.600 257.443 C 193.600 257.969,193.780 258.400,194.000 258.400 C 194.220 258.400,194.400 258.766,194.400 259.213 C 194.400 259.659,194.670 260.129,195.000 260.255 C 195.330 260.382,195.600 260.835,195.600 261.262 C 195.600 262.646,198.939 265.633,200.365 265.524 C 201.044 265.472,201.600 265.290,201.600 265.119 C 201.600 264.569,202.932 263.234,203.271 263.444 C 203.452 263.556,203.600 263.367,203.600 263.024 C 203.600 262.681,203.780 262.400,204.000 262.400 C 204.220 262.400,204.400 261.950,204.400 261.400 C 204.400 260.778,204.627 260.400,205.000 260.400 C 205.373 260.400,205.600 260.022,205.600 259.400 C 205.600 258.850,205.780 258.400,206.000 258.400 C 206.220 258.400,206.400 257.950,206.400 257.400 C 206.400 256.778,206.627 256.400,207.000 256.400 C 207.373 256.400,207.600 256.022,207.600 255.400 C 207.600 254.850,207.780 254.400,208.000 254.400 C 208.220 254.400,208.400 253.950,208.400 253.400 C 208.400 252.850,208.593 252.400,208.829 252.400 C 209.515 252.400,210.315 251.410,210.473 250.365 C 210.553 249.834,210.840 249.445,211.109 249.500 C 211.393 249.558,211.600 249.177,211.600 248.600 C 211.600 248.050,211.768 247.600,211.973 247.600 C 212.179 247.600,212.404 247.105,212.473 246.500 C 212.545 245.881,212.819 245.444,213.100 245.500 C 213.393 245.559,213.600 245.187,213.600 244.600 C 213.600 244.050,213.768 243.600,213.973 243.600 C 214.179 243.600,214.404 243.105,214.473 242.500 C 214.545 241.881,214.819 241.444,215.100 241.500 C 215.393 241.559,215.600 241.187,215.600 240.600 C 215.600 240.050,215.768 239.600,215.973 239.600 C 216.179 239.600,216.404 239.105,216.473 238.500 C 216.545 237.881,216.819 237.444,217.100 237.500 C 217.393 237.559,217.600 237.187,217.600 236.600 C 217.600 236.050,217.768 235.600,217.973 235.600 C 218.179 235.600,218.404 235.105,218.473 234.500 C 218.545 233.881,218.819 233.444,219.100 233.500 C 219.393 233.559,219.600 233.187,219.600 232.600 C 219.600 232.050,219.768 231.600,219.973 231.600 C 220.179 231.600,220.404 231.105,220.473 230.500 C 220.545 229.881,220.819 229.444,221.100 229.500 C 221.393 229.559,221.600 229.187,221.600 228.600 C 221.600 228.050,221.768 227.600,221.973 227.600 C 222.179 227.600,222.404 227.105,222.473 226.500 C 222.545 225.881,222.819 225.444,223.100 225.500 C 223.393 225.559,223.600 225.187,223.600 224.600 C 223.600 224.050,223.768 223.600,223.973 223.600 C 224.179 223.600,224.404 223.105,224.473 222.500 C 224.545 221.881,224.819 221.444,225.100 221.500 C 225.393 221.559,225.600 221.187,225.600 220.600 C 225.600 220.050,225.768 219.600,225.973 219.600 C 226.179 219.600,226.404 219.105,226.473 218.500 C 226.545 217.881,226.819 217.444,227.100 217.500 C 227.393 217.559,227.600 217.187,227.600 216.600 C 227.600 216.050,227.768 215.600,227.973 215.600 C 228.179 215.600,228.404 215.105,228.473 214.500 C 228.545 213.881,228.819 213.444,229.100 213.500 C 229.393 213.559,229.600 213.187,229.600 212.600 C 229.600 212.050,229.768 211.600,229.973 211.600 C 230.179 211.600,230.404 211.105,230.473 210.500 C 230.545 209.881,230.819 209.444,231.100 209.500 C 231.393 209.559,231.600 209.187,231.600 208.600 C 231.600 208.050,231.768 207.600,231.973 207.600 C 232.179 207.600,232.404 207.105,232.473 206.500 C 232.545 205.881,232.819 205.444,233.100 205.500 C 233.375 205.555,233.600 205.330,233.600 205.000 C 233.600 204.670,233.780 204.400,234.000 204.400 C 234.220 204.400,234.400 203.950,234.400 203.400 C 234.400 202.778,234.627 202.400,235.000 202.400 C 235.373 202.400,235.600 202.022,235.600 201.400 C 235.600 200.850,235.780 200.400,236.000 200.400 C 236.220 200.400,236.400 199.950,236.400 199.400 C 236.400 198.778,236.627 198.400,237.000 198.400 C 237.373 198.400,237.600 198.022,237.600 197.400 C 237.600 196.850,237.780 196.400,238.000 196.400 C 238.220 196.400,238.400 195.950,238.400 195.400 C 238.400 194.778,238.627 194.400,239.000 194.400 C 239.419 194.400,239.600 193.978,239.600 193.000 C 239.600 192.230,239.768 191.600,239.973 191.600 C 240.179 191.600,240.404 191.105,240.473 190.500 C 240.545 189.881,240.819 189.444,241.100 189.500 C 241.447 189.569,241.600 188.987,241.600 187.600 C 241.600 186.500,241.772 185.600,241.983 185.600 C 242.194 185.600,242.419 184.205,242.483 182.500 C 242.567 180.281,242.742 179.428,243.100 179.500 C 243.464 179.573,243.600 178.787,243.600 176.600 C 243.600 174.200,243.480 173.600,243.000 173.600 C 242.514 173.600,242.400 172.958,242.400 170.224 C 242.400 168.367,242.220 166.736,242.000 166.600 C 241.780 166.464,241.600 165.548,241.600 164.564 C 241.600 163.343,241.410 162.702,241.000 162.545 C 240.630 162.403,240.400 161.795,240.400 160.957 C 240.400 160.211,240.220 159.600,240.000 159.600 C 239.780 159.600,239.600 159.150,239.600 158.600 C 239.600 157.978,239.373 157.600,239.000 157.600 C 238.654 157.600,238.400 157.238,238.400 156.746 C 238.400 156.276,237.950 155.475,237.400 154.965 C 236.850 154.455,236.394 153.805,236.387 153.519 C 236.371 152.844,235.422 151.600,234.923 151.600 C 234.710 151.600,234.294 151.150,234.000 150.600 C 233.706 150.050,233.225 149.600,232.932 149.600 C 232.640 149.600,232.400 149.228,232.400 148.774 C 232.400 147.733,228.321 143.600,227.294 143.600 C 226.877 143.600,226.294 143.150,226.000 142.600 C 225.706 142.050,225.256 141.600,225.000 141.600 C 224.744 141.600,224.294 141.150,224.000 140.600 C 223.675 139.994,223.115 139.600,222.575 139.600 C 222.086 139.600,221.582 139.330,221.455 139.000 C 221.329 138.670,220.859 138.400,220.413 138.400 C 219.966 138.400,219.600 138.220,219.600 138.000 C 219.600 137.780,219.349 137.600,219.043 137.600 C 218.736 137.600,218.382 137.330,218.255 137.000 C 218.121 136.649,217.521 136.400,216.813 136.400 C 216.146 136.400,215.600 136.220,215.600 136.000 C 215.600 135.780,215.169 135.600,214.643 135.600 C 214.116 135.600,213.582 135.330,213.455 135.000 C 213.298 134.589,212.655 134.400,211.413 134.400 C 210.416 134.400,209.600 134.220,209.600 134.000 C 209.600 133.763,208.148 133.600,206.043 133.600 C 203.250 133.600,202.436 133.471,202.255 133.000 C 202.089 132.567,201.410 132.400,199.813 132.400 C 198.113 132.400,197.600 132.539,197.600 133.000 M228.000 155.624 C 228.000 155.831,227.640 156.000,227.200 156.000 C 226.318 156.000,226.111 155.370,226.900 155.087 C 227.505 154.870,228.000 155.112,228.000 155.624 M206.400 158.000 C 206.400 158.220,206.766 158.400,207.213 158.400 C 207.659 158.400,208.129 158.670,208.255 159.000 C 208.382 159.330,208.916 159.600,209.443 159.600 C 209.969 159.600,210.400 159.780,210.400 160.000 C 210.400 160.220,210.766 160.400,211.213 160.400 C 211.659 160.400,212.129 160.670,212.255 161.000 C 212.382 161.330,212.736 161.600,213.043 161.600 C 213.349 161.600,213.600 161.780,213.600 162.000 C 213.600 162.220,213.966 162.400,214.413 162.400 C 214.859 162.400,215.329 162.670,215.455 163.000 C 215.582 163.330,216.086 163.600,216.575 163.600 C 217.115 163.600,217.675 163.994,218.000 164.600 C 218.600 165.722,219.398 165.905,219.745 165.000 C 219.902 164.589,220.545 164.400,221.787 164.400 C 222.784 164.400,223.600 164.220,223.600 164.000 C 223.600 163.780,224.481 163.600,225.557 163.600 C 226.928 163.600,227.583 163.420,227.745 163.000 C 227.902 162.589,228.545 162.400,229.787 162.400 C 230.784 162.400,231.600 162.220,231.600 162.000 C 231.600 161.780,232.050 161.600,232.600 161.600 C 233.400 161.600,233.600 161.800,233.600 162.600 C 233.600 163.150,233.780 163.600,234.000 163.600 C 234.220 163.600,234.400 164.050,234.400 164.600 C 234.400 165.222,234.627 165.600,235.000 165.600 C 235.373 165.600,235.600 165.978,235.600 166.600 C 235.600 167.150,235.780 167.600,236.000 167.600 C 236.220 167.600,236.400 168.500,236.400 169.600 C 236.400 171.111,236.547 171.600,237.000 171.600 C 237.512 171.600,237.600 172.689,237.600 179.000 C 237.600 185.311,237.512 186.400,237.000 186.400 C 236.670 186.400,236.400 186.670,236.400 187.000 C 236.400 187.419,235.978 187.600,235.000 187.600 C 234.230 187.600,233.600 187.780,233.600 188.000 C 233.600 188.220,232.719 188.400,231.643 188.400 C 230.272 188.400,229.617 188.580,229.455 189.000 C 229.298 189.411,228.655 189.600,227.413 189.600 C 226.416 189.600,225.600 189.780,225.600 190.000 C 225.600 190.220,225.150 190.400,224.600 190.400 C 223.987 190.400,223.600 190.172,223.600 189.813 C 223.600 189.455,223.365 189.315,223.000 189.455 C 222.670 189.582,222.400 190.039,222.400 190.471 C 222.400 191.693,221.405 192.400,219.684 192.400 C 218.222 192.400,218.124 192.470,218.302 193.400 C 218.414 193.984,218.307 194.400,218.047 194.400 C 217.801 194.400,217.600 194.850,217.600 195.400 C 217.600 196.022,217.373 196.400,217.000 196.400 C 216.627 196.400,216.400 196.778,216.400 197.400 C 216.400 198.312,216.250 198.399,214.700 198.387 C 212.981 198.374,211.600 197.692,211.600 196.856 C 211.600 196.605,211.330 196.400,211.000 196.400 C 210.547 196.400,210.400 196.889,210.400 198.400 C 210.400 199.500,210.220 200.400,210.000 200.400 C 209.780 200.400,209.600 200.850,209.600 201.400 C 209.600 202.333,209.467 202.400,207.600 202.400 L 205.600 202.400 205.600 200.813 C 205.600 199.566,205.471 199.275,205.000 199.455 C 204.630 199.597,204.400 200.205,204.400 201.043 C 204.400 201.789,204.220 202.400,204.000 202.400 C 203.780 202.400,203.600 202.850,203.600 203.400 C 203.600 204.022,203.373 204.400,203.000 204.400 C 202.670 204.400,202.400 204.670,202.400 205.000 C 202.400 205.330,202.233 205.600,202.028 205.600 C 201.823 205.600,201.598 206.005,201.528 206.500 C 201.287 208.196,197.534 208.014,195.740 206.220 C 194.411 204.891,194.139 203.600,195.187 203.600 C 195.414 203.600,195.600 203.330,195.600 203.000 C 195.600 202.670,195.330 202.400,195.000 202.400 C 194.670 202.400,194.400 202.670,194.400 203.000 C 194.400 203.806,190.981 203.845,190.520 203.045 C 190.344 202.739,189.840 202.423,189.400 202.341 C 188.830 202.236,188.564 201.821,188.475 200.897 C 188.364 199.753,187.600 198.969,187.600 200.000 C 187.600 200.220,187.150 200.400,186.600 200.400 C 186.050 200.400,185.600 200.220,185.600 200.000 C 185.600 199.780,185.150 199.600,184.600 199.600 C 184.012 199.600,183.600 199.370,183.600 199.043 C 183.600 198.736,183.330 198.382,183.000 198.255 C 182.649 198.121,182.400 197.521,182.400 196.813 C 182.400 196.146,182.220 195.600,182.000 195.600 C 181.780 195.600,181.600 195.780,181.600 196.000 C 181.600 196.997,177.955 196.416,176.769 195.231 C 175.106 193.568,175.233 192.301,177.264 190.290 C 178.179 189.384,178.723 188.574,178.473 188.491 C 178.223 188.408,177.588 188.803,177.063 189.370 C 176.106 190.402,173.600 190.858,173.600 190.000 C 173.600 189.780,172.964 189.600,172.187 189.600 C 171.301 189.600,170.689 189.377,170.545 189.000 C 170.389 188.594,169.753 188.400,168.581 188.400 C 167.627 188.400,166.736 188.220,166.600 188.000 C 166.464 187.780,165.733 187.600,164.976 187.600 C 164.020 187.600,163.600 187.417,163.600 187.000 C 163.600 186.627,163.222 186.400,162.600 186.400 L 161.600 186.400 161.600 180.000 C 161.600 176.000,161.750 173.600,162.000 173.600 C 162.222 173.600,162.400 172.529,162.400 171.187 C 162.400 169.412,162.558 168.714,163.000 168.545 C 163.370 168.403,163.600 167.795,163.600 166.957 C 163.600 166.211,163.780 165.600,164.000 165.600 C 164.220 165.600,164.400 165.234,164.400 164.787 C 164.400 164.341,164.670 163.871,165.000 163.745 C 165.330 163.618,165.600 163.084,165.600 162.557 C 165.600 161.803,165.812 161.600,166.600 161.600 C 167.150 161.600,167.600 161.780,167.600 162.000 C 167.600 162.220,168.146 162.400,168.813 162.400 C 169.521 162.400,170.121 162.649,170.255 163.000 C 170.417 163.420,171.072 163.600,172.443 163.600 C 173.519 163.600,174.400 163.780,174.400 164.000 C 174.400 164.220,175.036 164.400,175.813 164.400 C 176.699 164.400,177.311 164.623,177.455 165.000 C 177.631 165.457,178.378 165.600,180.600 165.600 C 182.822 165.600,183.569 165.457,183.745 165.000 C 183.871 164.670,184.298 164.400,184.693 164.400 C 185.087 164.400,185.748 163.950,186.161 163.400 C 186.574 162.850,187.228 162.400,187.614 162.400 C 188.000 162.400,188.740 161.953,189.258 161.407 C 189.776 160.861,190.515 160.411,190.900 160.407 C 191.285 160.403,191.600 160.220,191.600 160.000 C 191.600 159.780,191.793 159.600,192.029 159.600 C 192.264 159.600,192.727 159.330,193.057 159.000 C 193.387 158.670,194.190 158.400,194.841 158.400 C 195.525 158.400,196.122 158.654,196.255 159.000 C 196.382 159.330,196.736 159.600,197.043 159.600 C 197.349 159.600,197.600 159.780,197.600 160.000 C 197.600 160.684,198.276 160.442,199.258 159.407 C 199.776 158.861,200.515 158.411,200.900 158.407 C 201.285 158.403,201.600 158.220,201.600 158.000 C 201.600 157.778,202.667 157.600,204.000 157.600 C 205.333 157.600,206.400 157.778,206.400 158.000 M222.000 158.269 C 222.000 158.853,220.634 160.000,219.938 160.000 C 219.532 160.000,219.200 160.180,219.200 160.400 C 219.200 160.620,218.911 160.800,218.558 160.800 C 218.049 160.800,218.112 160.594,218.858 159.807 C 219.376 159.261,220.115 158.811,220.500 158.807 C 220.885 158.803,221.200 158.620,221.200 158.400 C 221.200 158.180,221.380 158.000,221.600 158.000 C 221.820 158.000,222.000 158.121,222.000 158.269 M191.600 168.600 C 191.600 169.150,191.780 169.600,192.000 169.600 C 192.220 169.600,192.400 169.150,192.400 168.600 C 192.400 168.050,192.220 167.600,192.000 167.600 C 191.780 167.600,191.600 168.050,191.600 168.600 M201.600 169.000 C 201.600 169.330,201.761 169.600,201.957 169.600 C 202.154 169.600,202.418 169.330,202.545 169.000 C 202.685 168.635,202.545 168.400,202.187 168.400 C 201.864 168.400,201.600 168.670,201.600 169.000 M200.400 172.187 C 200.400 173.612,200.522 173.928,201.000 173.745 C 201.391 173.595,201.600 172.972,201.600 171.957 C 201.600 170.840,201.431 170.400,201.000 170.400 C 200.556 170.400,200.400 170.865,200.400 172.187 M210.255 171.000 C 210.382 171.330,210.736 171.600,211.043 171.600 C 211.349 171.600,211.600 171.330,211.600 171.000 C 211.600 170.670,211.246 170.400,210.813 170.400 C 210.277 170.400,210.099 170.592,210.255 171.000 M190.900 171.465 C 190.138 171.772,190.227 176.248,191.000 176.545 C 191.498 176.736,191.600 176.301,191.600 173.987 C 191.600 172.454,191.555 171.214,191.500 171.232 C 191.445 171.249,191.175 171.354,190.900 171.465 M199.600 175.711 C 199.600 177.367,198.450 178.400,196.608 178.400 C 195.543 178.400,195.278 178.538,195.455 179.000 C 195.850 180.028,197.858 179.712,199.186 178.413 C 200.394 177.233,200.968 174.400,200.000 174.400 C 199.780 174.400,199.600 174.990,199.600 175.711 M217.455 175.000 C 217.582 175.330,217.931 175.600,218.230 175.600 C 218.550 175.600,218.680 175.352,218.545 175.000 C 218.418 174.670,218.069 174.400,217.770 174.400 C 217.450 174.400,217.320 174.648,217.455 175.000 M226.400 182.000 C 226.400 182.524,226.594 182.700,227.000 182.545 C 227.330 182.418,227.600 182.173,227.600 182.000 C 227.600 181.827,227.330 181.582,227.000 181.455 C 226.594 181.300,226.400 181.476,226.400 182.000 M216.255 183.000 C 216.382 183.330,216.736 183.600,217.043 183.600 C 217.349 183.600,217.600 183.330,217.600 183.000 C 217.600 182.670,217.246 182.400,216.813 182.400 C 216.277 182.400,216.099 182.592,216.255 183.000 M222.400 186.024 C 222.400 186.623,223.763 186.808,224.290 186.281 C 224.754 185.817,224.651 185.733,223.619 185.733 C 222.949 185.733,222.400 185.864,222.400 186.024 M184.700 189.624 C 183.198 191.187,183.108 193.196,184.587 192.119 C 185.131 191.723,185.581 190.995,185.587 190.500 C 185.594 190.005,185.761 189.600,185.957 189.600 C 186.154 189.600,186.418 189.330,186.545 189.000 C 186.915 188.034,185.896 188.379,184.700 189.624 M189.455 189.000 C 189.582 189.330,189.931 189.600,190.230 189.600 C 190.550 189.600,190.680 189.352,190.545 189.000 C 190.418 188.670,190.069 188.400,189.770 188.400 C 189.450 188.400,189.320 188.648,189.455 189.000 M194.400 190.000 C 194.400 190.220,194.951 190.400,195.624 190.400 C 196.337 190.400,196.744 190.233,196.600 190.000 C 196.464 189.780,195.913 189.600,195.376 189.600 C 194.839 189.600,194.400 189.780,194.400 190.000 M199.600 194.187 C 199.600 194.544,199.835 194.685,200.198 194.546 C 200.526 194.419,200.696 194.155,200.574 193.958 C 200.225 193.393,199.600 193.540,199.600 194.187 M198.851 195.567 C 198.549 195.754,198.369 196.103,198.451 196.341 C 198.541 196.602,198.818 196.639,199.149 196.433 C 199.451 196.246,199.631 195.897,199.549 195.659 C 199.459 195.398,199.182 195.361,198.851 195.567 M195.600 201.000 C 195.600 201.330,195.780 201.600,196.000 201.600 C 196.220 201.600,196.400 201.330,196.400 201.000 C 196.400 200.670,196.220 200.400,196.000 200.400 C 195.780 200.400,195.600 200.670,195.600 201.000 M210.917 214.298 C 211.152 215.528,210.932 216.128,210.372 215.783 C 209.898 215.490,209.882 213.200,210.353 213.200 C 210.548 213.200,210.801 213.694,210.917 214.298 " stroke="none" fill="#749c3c" fill-rule="evenodd"></path><path id="path4" d="M226.900 155.087 C 226.111 155.370,226.318 156.000,227.200 156.000 C 227.640 156.000,228.000 155.831,228.000 155.624 C 228.000 155.112,227.505 154.870,226.900 155.087 M221.200 158.400 C 221.200 158.620,220.885 158.803,220.500 158.807 C 220.115 158.811,219.376 159.261,218.858 159.807 C 218.112 160.594,218.049 160.800,218.558 160.800 C 218.911 160.800,219.200 160.620,219.200 160.400 C 219.200 160.180,219.532 160.000,219.938 160.000 C 220.344 160.000,220.974 159.671,221.338 159.269 C 222.092 158.436,222.182 158.000,221.600 158.000 C 221.380 158.000,221.200 158.180,221.200 158.400 M210.000 214.376 C 210.000 215.527,210.557 216.317,210.936 215.704 C 211.227 215.233,210.754 213.200,210.353 213.200 C 210.159 213.200,210.000 213.729,210.000 214.376 " stroke="none" fill="#74a444" fill-rule="evenodd"></path></g></svg>