<?xml version="1.0" standalone="no"?>
<!DOCTYPE svg PUBLIC "-//W3C//DTD SVG 20010904//EN"
 "http://www.w3.org/TR/2001/REC-SVG-20010904/DTD/svg10.dtd">
<svg version="1.0" xmlns="http://www.w3.org/2000/svg"
 width="400.000000pt" height="400.000000pt" viewBox="0 0 400.000000 400.000000"
 preserveAspectRatio="xMidYMid meet">
<metadata>
Created by potrace 1.15, written by Peter Selinger 2001-2017
</metadata>
<g transform="translate(0.000000,400.000000) scale(0.100000,-0.100000)"
fill="#000000" stroke="none">
<path d="M1932 2649 c-79 -13 -158 -56 -223 -122 -67 -67 -104 -138 -119 -229
-18 -114 -5 -150 165 -488 194 -385 227 -445 245 -445 18 0 50 59 245 445 171
338 183 373 165 489 -14 86 -48 156 -108 218 -105 109 -232 155 -370 132z m-3
-162 c6 -8 7 -18 3 -22 -4 -5 -2 -5 4 -2 12 7 36 -14 33 -29 -1 -5 -1 -16 0
-24 1 -13 3 -13 10 -1 15 24 43 -14 45 -60 0 -21 4 -39 8 -39 5 0 8 6 8 14 0
8 14 26 31 40 25 21 34 24 45 15 11 -9 18 -8 32 3 9 8 33 21 52 28 19 8 40 20
46 28 7 9 18 12 32 8 28 -9 28 -17 -3 -46 -13 -12 -22 -27 -19 -32 8 -13 -14
-42 -96 -128 -81 -86 -119 -154 -127 -232 -5 -53 -4 -56 26 -78 64 -45 61
-108 -9 -178 -33 -33 -39 -46 -40 -83 -1 -67 -4 -89 -10 -89 -3 0 -5 28 -5 61
0 58 -2 63 -34 90 -48 40 -71 78 -71 121 0 31 6 42 43 72 44 36 44 36 42 98
-2 66 -17 118 -35 118 -14 0 -13 -5 10 -50 11 -22 20 -45 20 -52 0 -7 -19 25
-43 72 -36 73 -46 85 -69 88 -16 2 -28 7 -28 11 0 4 -15 23 -33 43 -40 44 -60
84 -52 108 3 10 1 21 -5 25 -16 10 -12 72 6 90 15 15 18 15 41 0 14 -9 31 -14
39 -11 13 5 19 -5 15 -26 0 -5 4 -8 9 -8 6 0 10 -6 10 -14 0 -13 29 -31 37
-23 2 2 -6 15 -17 30 -26 33 -25 55 3 67 30 12 33 12 46 -3z"/>
</g>
</svg>
